# Exported from Wings 3D 1.5.4
mtllib Curve32R_1xA.mtl
o _submesh0_copy10
#12 vertices, 11 faces
v -0.49999909 -0.49994433 4.99992415
v 0.49999891 -0.49994433 5.00003598
v -0.49998991 -0.50005267 -5.00007584
v -0.49998991 0.49994433 -4.99996750
v -0.44719091 0.49994533 -5.00001160
v -0.20172291 0.46887533 -5.00004752
v 2.7005587e-2 0.37413133 -5.00003217
v 0.22341909 0.22341633 -5.00002654
v 0.37413009 2.7009727e-2 -5.00003094
v 0.46887109 -0.20171667 -5.00004515
v 0.50000809 -0.44718767 -4.99995829
v 0.50000809 -0.50005267 -4.99996402
vt 1.8347407e-2 0.98164892
vt 1.8351039e-2 0.65139858
vt 4.0433029e-2 0.20232986
vt 0.27512340 0.60612481
vt 0.29019962 0.59736395
vt 0.32595903 3.6378788e-2
vt 0.34859709 0.98165256
vt 0.34860073 0.65140221
vt 0.35705573 0.55038283
vt 0.37917963 0.64528259
vt 0.37917963 0.97553195
vt 0.41559691 0.49330494
vt 0.46687440 0.42962144
vt 0.51300550 0.36211986
vt 0.55641631 0.29283573
vt 0.59894438 0.22305792
vt 0.60802488 0.20814651
vt 0.64738349 1.9978295e-2
vt 0.64738475 3.7444566e-2
vt 0.65771705 0.11853557
vt 0.68906534 0.19407375
vt 0.70942998 0.64528259
vt 0.73886260 0.25894117
vt 0.80372417 0.30868993
vt 0.87926061 0.33991909
vt 0.96030234 0.35013066
vt 0.97773165 1.9978203e-2
vt 0.97773165 0.35012907
vn 2.1977737e-12 -1.00000000 1.0834576e-5
vn -7.3458437e-6 0.99503822 9.9493442e-2
vn -1.00000000 1.2137812e-10 -9.1743310e-7
vn 2.1977737e-12 -1.00000000 1.0834576e-5
vn 0.70699128 0.70565798 4.7012290e-2
vn 0.70699128 0.70565798 4.7012290e-2
vn 0.70699128 0.70565798 4.7012290e-2
vn 0.70699128 0.70565798 4.7012290e-2
vn 0.70699128 0.70565798 4.7012290e-2
vn 0.70699128 0.70565798 4.7012290e-2
vn 0.70699128 0.70565798 4.7012290e-2
vn 0.70699128 0.70565798 4.7012290e-2
vn 2.1977737e-12 -1.00000000 1.0834576e-5
vn -1.00000000 1.2137812e-10 -9.1743310e-7
vn -2.0285211e-7 -1.2038418e-5 -1.00000000
vn -7.3458437e-6 0.99503822 9.9493442e-2
vn -1.00000000 1.2137812e-10 -9.1743310e-7
vn -2.0285211e-7 -1.2038418e-5 -1.00000000
vn 6.2675348e-2 0.99365234 9.3417469e-2
vn -2.0285211e-7 -1.2038418e-5 -1.00000000
vn 6.2675348e-2 0.99365234 9.3417469e-2
vn -2.0285211e-7 -1.2038418e-5 -1.00000000
vn 0.25580152 0.96378268 7.5422379e-2
vn 0.25580152 0.96378268 7.5422379e-2
vn -2.0285211e-7 -1.2038418e-5 -1.00000000
vn 0.49939174 0.86481616 5.1970225e-2
vn 0.49939174 0.86481616 5.1970225e-2
vn -2.0285211e-7 -1.2038418e-5 -1.00000000
vn 0.70677945 0.70672902 3.1573706e-2
vn 0.70677945 0.70672902 3.1573706e-2
vn -2.0285211e-7 -1.2038418e-5 -1.00000000
vn 0.86592736 0.49993126 1.5444651e-2
vn 0.86592736 0.49993126 1.5444651e-2
vn -2.0285211e-7 -1.2038418e-5 -1.00000000
vn 0.96652544 0.25652881 4.6417772e-3
vn 0.96652544 0.25652881 4.6417772e-3
vn -2.0285211e-7 -1.2038418e-5 -1.00000000
vn 0.99801067 6.3044330e-2 3.3351659e-4
vn 0.99801067 6.3044330e-2 3.3351659e-4
vn 2.1977737e-12 -1.00000000 1.0834576e-5
vn -2.0285211e-7 -1.2038418e-5 -1.00000000
vn 1.00000000 -1.2137962e-10 9.1743310e-7
g _submesh0_copy10__submesh0_copy10_auv
usemtl _submesh0_copy10_auv
s 1
f 1/22/3 4/11/17 3/10/14
s 2
f 1/8/1 3/7/13 12/1/40 2/2/4
s 3
f 4/28/18 5/26/20 6/25/22 7/24/25 8/23/28 9/21/31 10/20/34 11/19/37 12/18/41 3/27/15
s 4
f 2/6/5 5/5/19 4/4/16 1/3/2
f 2/6/6 6/9/23 5/5/21
f 2/6/7 7/12/26 6/9/24
f 2/6/8 8/13/29 7/12/27
f 2/6/9 9/14/32 8/13/30
f 2/6/10 10/15/35 9/14/33
f 2/6/11 11/16/38 10/15/36
f 2/6/12 12/17/42 11/16/39
