# Exported from Wings 3D 1.5.4
mtllib Curve32L_1xA.mtl
o _submesh0_copy8
#12 vertices, 11 faces
v 0.50005168 5.00005325 -0.49994907
v -0.49994532 4.99994489 -0.49994907
v -0.50005368 -5.00005511 -0.50004993
v 0.49994332 -4.99994674 -0.50004993
v 0.49994432 -4.99999142 -0.44725093
v 0.46887432 -5.00003003 -0.20178293
v 0.37413032 -5.00001723 2.6945574e-2
v 0.22341532 -5.00001375 0.22335907
v 2.7008719e-2 -5.00001984 0.37407007
v -0.20171768 -5.00003507 0.46881107
v -0.44718868 -4.99994853 0.49994807
v -0.50005368 -4.99995425 0.49994807
vt 1.8347051e-2 0.65140498
vt 1.8347051e-2 0.98165289
vt 4.0437390e-2 0.43067539
vt 0.27520757 2.6930558e-2
vt 0.29030005 3.5706558e-2
vt 0.32592753 0.59668265
vt 0.34859397 0.65140498
vt 0.34859397 0.98165289
vt 0.35714171 8.2713731e-2
vt 0.37917240 0.97553719
vt 0.37917240 0.64528928
vt 0.41567079 0.13980170
vt 0.46693394 0.20349262
vt 0.51305313 0.27100477
vt 0.55645048 0.34029782
vt 0.59896286 0.41008007
vt 0.60802742 0.42497552
vt 0.64736087 0.32964230
vt 0.64736245 0.34707147
vt 0.65757236 0.24860116
vt 0.68880129 0.17306528
vt 0.70941965 0.64528928
vt 0.73854968 0.10820419
vt 0.80341662 5.8407301e-2
vt 0.87895425 2.7059238e-2
vt 0.96004465 1.6727015e-2
vt 0.97751080 1.6725752e-2
vt 0.97751089 0.34707147
vn 1.2142820e-10 1.0085191e-5 -1.00000000
vn 0.70703705 4.7000185e-2 0.70561292
vn 0.70703705 4.7000185e-2 0.70561292
vn 0.70703705 4.7000185e-2 0.70561292
vn 0.70703705 4.7000185e-2 0.70561292
vn 0.70703705 4.7000185e-2 0.70561292
vn 0.70703705 4.7000185e-2 0.70561292
vn 0.70703705 4.7000185e-2 0.70561292
vn 0.70703705 4.7000185e-2 0.70561292
vn 1.2142820e-10 1.0085191e-5 -1.00000000
vn -1.0782663e-5 9.9494580e-2 0.99503810
vn -1.00000000 1.0836223e-5 1.2142810e-10
vn 1.2142820e-10 1.0085191e-5 -1.00000000
vn -1.00000000 1.0836223e-5 1.2142810e-10
vn -1.2040248e-5 -1.00000000 -1.1205768e-5
vn 1.2142820e-10 1.0085191e-5 -1.00000000
vn 1.00000000 -1.0836032e-5 -1.8939874e-5
vn -1.2040248e-5 -1.00000000 -1.1205768e-5
vn 0.99801969 3.2076294e-4 6.2901525e-2
vn -1.2040248e-5 -1.00000000 -1.1205768e-5
vn 0.99801969 3.2076294e-4 6.2901525e-2
vn -1.2040248e-5 -1.00000000 -1.1205768e-5
vn 0.96655873 4.6315716e-3 0.25640354
vn 0.96655873 4.6315716e-3 0.25640354
vn -1.2040248e-5 -1.00000000 -1.1205768e-5
vn 0.86592647 1.5437231e-2 0.49993303
vn 0.86592647 1.5437231e-2 0.49993303
vn -1.2040248e-5 -1.00000000 -1.1205768e-5
vn 0.70678250 3.1565706e-2 0.70672633
vn 0.70678250 3.1565706e-2 0.70672633
vn -1.2040248e-5 -1.00000000 -1.1205768e-5
vn 0.49939026 5.1963016e-2 0.86481744
vn 0.49939026 5.1963016e-2 0.86481744
vn -1.2040248e-5 -1.00000000 -1.1205768e-5
vn 0.25593513 7.5402728e-2 0.96374874
vn 0.25593513 7.5402728e-2 0.96374874
vn 6.2815456e-2 9.3404105e-2 0.99364475
vn -1.2040248e-5 -1.00000000 -1.1205768e-5
vn 6.2815456e-2 9.3404105e-2 0.99364475
vn -1.0782663e-5 9.9494580e-2 0.99503810
vn -1.00000000 1.0836223e-5 1.2142810e-10
vn -1.2040248e-5 -1.00000000 -1.1205768e-5
g _submesh0_copy8__submesh0_copy8_auv
usemtl _submesh0_copy8_auv
s 1
f 3/11/14 12/22/41 2/10/12
s 2
f 1/2/1 4/1/16 3/7/13 2/8/10
s 3
f 4/19/18 5/18/20 6/20/22 7/21/25 8/23/28 9/24/31 10/25/34 11/26/38 12/27/42 3/28/15
s 4
f 1/6/3 5/16/19 4/17/17
f 1/6/4 6/15/23 5/16/21
f 1/6/5 7/14/26 6/15/24
f 1/6/6 8/13/29 7/14/27
f 1/6/7 9/12/32 8/13/30
f 1/6/8 10/9/35 9/12/33
f 1/6/9 11/5/39 10/9/36
f 2/3/11 12/4/40 11/5/37 1/6/2
