# Exported from Wings 3D 1.5.4
mtllib Curve32R_1x3.mtl
o _submesh0_copy10
#12 vertices, 11 faces
v -0.49999980 -0.49998646 1.49997848
v 0.49999820 -0.49998646 1.50001188
v -0.49998920 -0.50001054 -1.50002152
v -0.49998920 0.49998646 -1.49999744
v -0.44719020 0.49998746 -1.50001068
v -0.20172220 0.46891746 -1.50002123
v 2.7006297e-2 0.37417346 -1.50001586
v 0.22341980 0.22345846 -1.50001293
v 0.37413080 2.7051862e-2 -1.50001262
v 0.46887180 -0.20167454 -1.50001497
v 0.50000880 -0.44714554 -1.49998684
v 0.50000880 -0.50001054 -1.49998812
vt 1.8347407e-2 0.98164892
vt 1.8351039e-2 0.65139858
vt 4.0433029e-2 0.20232986
vt 0.27512340 0.60612481
vt 0.29019962 0.59736395
vt 0.32595903 3.6378788e-2
vt 0.34859709 0.98165256
vt 0.34860073 0.65140221
vt 0.35705573 0.55038283
vt 0.37917963 0.64528259
vt 0.37917963 0.97553195
vt 0.41559691 0.49330494
vt 0.46687440 0.42962144
vt 0.51300550 0.36211986
vt 0.55641631 0.29283573
vt 0.59894438 0.22305792
vt 0.60802488 0.20814651
vt 0.64738349 1.9978295e-2
vt 0.64738475 3.7444566e-2
vt 0.65771705 0.11853557
vt 0.68906534 0.19407375
vt 0.70942998 0.64528259
vt 0.73886260 0.25894117
vt 0.80372417 0.30868993
vt 0.87926061 0.33991909
vt 0.96030234 0.35013066
vt 0.97773165 1.9978203e-2
vt 0.97773165 0.35012907
vn 1.6279997e-12 -1.00000000 8.0256120e-6
vn -6.9587221e-6 0.94868547 0.31622126
vn -1.00000000 8.9909683e-11 -3.5314319e-6
vn 1.6279997e-12 -1.00000000 8.0256120e-6
vn 0.70598773 0.69160210 0.15253809
vn 0.70598773 0.69160210 0.15253809
vn 0.70598773 0.69160210 0.15253809
vn 0.70598773 0.69160210 0.15253809
vn 0.70598773 0.69160210 0.15253809
vn 0.70598773 0.69160210 0.15253809
vn 0.70598773 0.69160210 0.15253809
vn 0.70598773 0.69160210 0.15253809
vn 1.6279997e-12 -1.00000000 8.0256120e-6
vn -1.00000000 8.9909683e-11 -3.5314319e-6
vn -2.0285211e-7 -1.2038418e-5 -1.00000000
vn -6.9587221e-6 0.94868547 0.31622126
vn -1.00000000 8.9909683e-11 -3.5314319e-6
vn -2.0285211e-7 -1.2038418e-5 -1.00000000
vn 6.0407812e-2 0.95251978 0.29842414
vn -2.0285211e-7 -1.2038418e-5 -1.00000000
vn 6.0407812e-2 0.95251978 0.29842414
vn -2.0285211e-7 -1.2038418e-5 -1.00000000
vn 0.24986521 0.93698910 0.24416961
vn 0.24986521 0.93698910 0.24416961
vn -2.0285211e-7 -1.2038418e-5 -1.00000000
vn 0.49335049 0.85290845 0.17074095
vn 0.49335049 0.85290845 0.17074095
vn -2.0285211e-7 -1.2038418e-5 -1.00000000
vn 0.70351588 0.70293213 0.10465093
vn 0.70351588 0.70293213 0.10465093
vn -2.0285211e-7 -1.2038418e-5 -1.00000000
vn 0.86495403 0.49921083 5.1410820e-2
vn 0.86495403 0.49921083 5.1410820e-2
vn -2.0285211e-7 -1.2038418e-5 -1.00000000
vn 0.96642636 0.25647723 1.5476141e-2
vn 0.96642636 0.25647723 1.5476141e-2
vn -2.0285211e-7 -1.2038418e-5 -1.00000000
vn 0.99801011 6.3044233e-2 1.1139634e-3
vn 0.99801011 6.3044233e-2 1.1139634e-3
vn 1.6279997e-12 -1.00000000 8.0256120e-6
vn -2.0285211e-7 -1.2038418e-5 -1.00000000
vn 1.00000000 -8.9909899e-11 3.5314319e-6
g _submesh0_copy10__submesh0_copy10_auv
usemtl _submesh0_copy10_auv
s 1
f 1/22/3 4/11/17 3/10/14
s 2
f 1/8/1 3/7/13 12/1/40 2/2/4
s 3
f 4/28/18 5/26/20 6/25/22 7/24/25 8/23/28 9/21/31 10/20/34 11/19/37 12/18/41 3/27/15
s 4
f 2/6/5 5/5/19 4/4/16 1/3/2
f 2/6/6 6/9/23 5/5/21
f 2/6/7 7/12/26 6/9/24
f 2/6/8 8/13/29 7/12/27
f 2/6/9 9/14/32 8/13/30
f 2/6/10 10/15/35 9/14/33
f 2/6/11 11/16/38 10/15/36
f 2/6/12 12/17/42 11/16/39
