# Exported from Wings 3D 1.5.4
mtllib Curve31_1x3_refined.mtl
o Mesh1
#76 vertices, 61 faces
v -0.49717639 1.50000150 -0.44715972
v -0.49998239 1.50000144 -0.44715972
v -0.49999408 1.40660135 -0.20168733
v -0.48420908 1.40660170 -0.20168633
v -0.49998239 1.49999909 -0.50002472
v -0.48420239 1.50000172 -0.44880872
v -0.41097808 1.40659991 -0.21097633
v -0.47211619 1.12238913 2.7044175e-2
v -0.34274019 1.12238827 1.0632575e-2
v -0.49999619 1.12238851 2.7043775e-2
v -0.49999512 -1.02887491 -0.49998826
v -0.50000461 -1.49999491 -0.49998028
v -0.50000461 -1.49995047 0.50001672
v -0.50000344 -1.34155347 0.50001437
v -0.50000898 -0.60515086 0.46893446
v -0.50000390 8.1030434e-2 0.37418030
v -0.49999954 0.67026424 0.22345657
v -0.49991739 1.49999909 -0.50002472
v -0.44711739 1.50000026 -0.50002472
v -0.20164708 1.40659472 -0.50001233
v 2.7077212e-2 1.12237680 -0.50000812
v 0.22348046 0.67024816 -0.50000143
v 0.37419110 8.1011013e-2 -0.49999270
v 0.46893002 -0.60517238 -0.49998254
v 0.49999356 -1.34157569 -0.49998263
v 0.49999239 -1.49997269 -0.49998028
v -0.45377239 1.50000135 -0.47217072
v -0.44876839 1.50000093 -0.48426272
v -0.23919708 1.40659787 -0.34279633
v -0.21093708 1.40659547 -0.41103933
v -0.46173439 1.50000164 -0.46178772
v -0.28414908 1.40659947 -0.28420233
v -0.47211439 1.50000176 -0.45381872
v -0.34274208 1.40660017 -0.23924033
v -0.22218819 1.12238573 -3.9301825e-2
v -0.28414554 0.67026203 0.20093057
v -0.11867054 0.67025966 0.13238757
v -0.46173454 0.67026509 0.22345757
v -0.45376990 8.1030261e-2 0.37418130
v -0.44876498 -0.60514972 0.46893546
v -0.44711644 -1.34155230 0.50001437
v -0.44713961 -1.49994930 0.50001772
v 0.49999239 -1.49997035 -0.44718128
v 0.46892339 -1.49999313 -0.20171328
v 0.37417939 -1.49998507 2.7015718e-2
v 0.22346439 -1.49997969 0.22342872
v 2.7057792e-2 -1.49997736 0.37413972
v -0.20166861 -1.49997823 0.46888072
v 0.49998856 -1.34157335 -0.44720463
v 0.46892402 -0.60517011 -0.44884054
v 0.37418510 8.1011864e-2 -0.45384870
v 0.22347346 0.67024986 -0.46181143
v 2.7069012e-2 1.12237804 -0.47218512
v -0.20165608 1.40659542 -0.48426433
v -0.44712739 1.50000039 -0.49723672
v 1.0672212e-2 1.12238042 -0.34281812
v -3.9253688e-2 1.12238167 -0.22225312
v -0.11867119 1.12238450 -0.11873512
v 2.3422364e-2 0.67025797 2.3352572e-2
v -3.9235800e-2 8.1026482e-2 0.26413830
v 0.13245810 8.1023543e-2 0.13238830
v -0.23918390 8.1028720e-2 0.34696030
v -0.21092198 -0.60515177 0.43876446
v -0.20164644 -1.34155423 0.46887237
v 2.7077665e-2 -1.34155936 0.37412637
v 1.0697118e-2 -0.60515393 0.34696546
v 0.20100002 -0.60515919 0.20093546
v 0.22348056 -1.34156169 0.22341137
v 0.37415956 -1.34156707 2.7001672e-2
v 0.46888256 -1.34156913 -0.20175063
v 0.43878102 -0.60516621 -0.21101354
v 0.34698910 8.1015694e-2 -0.23927770
v 0.20096646 0.67025125 -0.28423443
v 0.13243546 0.67025408 -0.11874143
v 0.26418210 8.1019740e-2 -3.9308000e-2
v 0.34699902 -0.60516140 1.0629764e-2
vt -39.37040000 4.3306800e-4
vt -39.37040000 2.07913000
vt -39.37010000 2.08173000
vt -39.37000000 4.3306300e-4
vt -38.14720000 11.74320000
vt -38.14420000 11.74590000
vt -34.41710000 20.74830000
vt -34.41420000 20.75090000
vt -28.48350000 28.48110000
vt -28.48070000 28.48350000
vt -20.75090000 34.41460000
vt -20.74790000 34.41710000
vt -11.74590000 38.14460000
vt -11.74290000 38.14720000
vt -6.85671000 -2.0073800e-2
vt -6.85555000 2.05897000
vt -6.85216000 -2.86839000
vt -6.63982000 6.87262000
vt -6.63947000 -3.71207000
vt -6.00175000 -2.97284000
vt -5.99981000 -2.8709500e-2
vt -5.99969000 2.05029000
vt -5.99037000 6.03312000
vt -5.99024000 -4.43907000
vt -5.81581000 6.76980000
vt -5.81548000 -4.01597000
vt -5.25864000 -3.02321000
vt -5.25759000 -7.7874200e-3
vt -5.25675000 2.07119000
vt -5.24692000 5.74438000
vt -5.24682000 -4.86520000
vt -5.09576000 6.72022000
vt -5.09546000 -4.16227000
vt -4.95759000 5.30331000
vt -4.95746000 -5.20443000
vt -4.59727000 5.60538000
vt -4.59721000 -5.06966000
vt -4.48804000 -2.0973200e-6
vt -4.48737000 -3.02314000
vt -4.48719000 2.07899000
vt -4.34842000 6.72028000
vt -4.34816000 -4.16222000
vt -4.34232000 4.91549000
vt -4.34222000 -5.64713000
vt -3.92301000 5.60542000
vt -3.92299000 -5.06960000
vt -3.80467000 4.72946000
vt -3.80462000 -5.85875000
vt -3.74565000 -3.3339700e-4
vt -3.74499000 -2.97269000
vt -3.74479000 2.07871000
vt -3.62907000 6.76994000
vt -3.62884000 -4.01594000
vt -3.61173000 4.53438000
vt -3.61156000 -5.95824000
vt -3.27401000 -4.86520000
vt -3.27400000 5.74439000
vt -3.24665000 -5.85870000
vt -3.24665000 4.72950000
vt -3.16347000 4.15667000
vt -3.16337000 -6.30884000
vt -2.88947000 -3.0901400e-4
vt -2.88881000 -2.86811000
vt -2.88861000 2.07837000
vt -2.79947000 6.87289000
vt -2.79927000 -3.71196000
vt -2.77177000 3.97625000
vt -2.77174000 -6.47597000
vt -2.70957000 -5.64714000
vt -2.70952000 4.91548000
vt -2.52556000 -4.43897000
vt -2.52552000 6.03322000
vt -2.36527000 -6.47592000
vt -2.36523000 3.97629000
vt -2.09016000 -5.20434000
vt -2.09007000 5.30339000
vt -2.08173000 39.37040000
vt -2.07876000 39.37040000
vt -2.07698000 -1.3494900e-3
vt -2.07614000 2.07733000
vt -2.07394000 -2.88111000
vt -2.04440000 3.77794000
vt -2.04402000 -6.83080000
vt -2.01008000 6.86009000
vt -2.00917000 -3.74932000
vt -1.97402000 -6.30884000
vt -1.97391000 4.15665000
vt -1.81286000 5.99773000
vt -1.81157000 -4.49148000
vt -1.79065000 3.51538000
vt -1.79044000 -7.00557000
vt -1.56892000 3.39046000
vt -1.56891000 -7.08888000
vt -1.52278000 -5.95815000
vt -1.52262000 4.53444000
vt -1.49939000 5.25561000
vt -1.49733000 -5.25911000
vt -1.33898000 -7.08884000
vt -1.33878000 3.39049000
vt -1.11765000 -7.00553000
vt -1.11725000 3.51536000
vt -1.09098000 4.48773000
vt -1.08780000 -6.00181000
vt -0.86234400 -6.83070000
vt -0.86177500 3.77798000
vt -0.61590500 3.74532000
vt -0.61157000 -6.85275000
vt -0.36197700 2.89845000
vt -0.31694700 2.82508000
vt -0.27758100 2.79032000
vt -0.23672200 2.79033000
vt -0.19738900 2.82508000
vt -0.15204300 2.89846000
vt -0.10821800 2.88931000
vt -2.9750300e-3 39.37040000
vt -7.6490300e-4 -6.85219000
vt -6.8206800e-4 6.18310000
vt -4.3307100e-4 4.3307100e-4
vt -4.3307100e-4 39.37040000
vt -2.9348200e-4 2.08173000
vt -1.6944300e-4 -6.00119000
vt -1.5563700e-4 2.9458300e-3
vt -9.5911000e-5 3.74572000
vt -5.8976300e-5 4.3306700e-4
vt -5.8976300e-5 39.37040000
vt -7.1306900e-9 6.18310000
vt 3.4777100e-5 4.48814000
vt 4.7736600e-5 -5.25858000
vt 5.8933300e-5 7.9676400e-5
vt 5.8975700e-5 4.3306600e-4
vt 5.8975700e-5 39.37040000
vt 1.0005900e-4 6.86029000
vt 1.5999600e-4 5.25597000
vt 1.9332700e-4 -4.49107000
vt 2.5696300e-4 5.99797000
vt 2.8481300e-4 -3.74906000
vt 2.9752700e-4 2.88946000
vt 5.3633800e-4 -2.88091000
vt 7.5495200e-4 9.7858000e-6
vt 7.5495200e-4 2.07871000
vt 1.5171700e-3 2.88900000
vt 1.7232300e-3 -1.3494900e-3
vt 1.7232300e-3 2.07735000
vt 3.3687500e-3 6.86011000
vt 3.8105200e-3 5.99774000
vt 3.9256200e-3 -2.88109000
vt 4.0658500e-3 3.74520000
vt 4.1337500e-3 5.25560000
vt 4.2768300e-3 -3.74929000
vt 4.3757100e-3 4.48768000
vt 5.0974000e-3 -4.49144000
vt 6.1896100e-3 -5.25905000
vt 7.5601500e-3 -6.00171000
vt 8.4011900e-3 -6.85264000
vt 0.10944100 2.08134000
vt 0.11076200 2.88948000
vt 0.15289000 2.89860000
vt 0.19827400 2.82522000
vt 0.23756000 2.79044000
vt 0.27845100 2.79043000
vt 0.31779100 2.82517000
vt 0.36285500 2.89854000
vt 0.62029000 2.01672000
vt 0.62070700 -6.85224000
vt 0.62137600 3.74570000
vt 0.86156100 3.77800000
vt 0.86194300 -6.83065000
vt 1.09644000 1.81968000
vt 1.09745000 -6.00122000
vt 1.09766000 4.48813000
vt 1.11732000 3.51542000
vt 1.11753000 -7.00548000
vt 1.33861000 3.39047000
vt 1.33862000 -7.08886000
vt 1.50531000 1.50617000
vt 1.50654000 -5.25861000
vt 1.50665000 5.25595000
vt 1.52224000 4.53444000
vt 1.52240000 -5.95814000
vt 1.56875000 -7.08890000
vt 1.56895000 3.39048000
vt 1.79013000 -7.00566000
vt 1.79053000 3.51533000
vt 1.81909000 1.09747000
vt 1.82044000 -4.49109000
vt 1.82050000 5.99795000
vt 1.97403000 4.15670000
vt 1.97414000 -6.30878000
vt 2.01639000 0.62147300
vt 2.01758000 6.86027000
vt 2.01777000 -3.74908000
vt 2.04386000 -6.83089000
vt 2.04443000 3.77792000
vt 2.08133000 0.11059700
vt 2.08136000 7.9676400e-5
vt 2.08136000 39.37040000
vt 2.08205000 9.7855600e-6
vt 2.08270000 -2.88093000
vt 2.08292000 2.07869000
vt 2.08956000 5.30337000
vt 2.08969000 -5.20434000
vt 2.36495000 3.97626000
vt 2.36499000 -6.47595000
vt 2.52490000 6.03319000
vt 2.52503000 -4.43899000
vt 2.70970000 4.91553000
vt 2.70979000 -5.64708000
vt 2.77180000 -6.47595000
vt 2.77184000 3.97628000
vt 2.79835000 6.87269000
vt 2.79871000 -3.71199000
vt 2.88449000 -1.9640300e-2
vt 2.88530000 2.05904000
vt 2.88868000 -2.86831000
vt 3.16315000 -6.30891000
vt 3.16325000 4.15661000
vt 3.24627000 4.72947000
vt 3.24632000 -5.85873000
vt 3.27422000 5.74442000
vt 3.27432000 -4.86515000
vt 3.61161000 -5.95825000
vt 3.61178000 4.53438000
vt 3.62888000 6.76984000
vt 3.62921000 -4.01591000
vt 3.74581000 -2.97279000
vt 3.74722000 -2.8710000e-2
vt 3.74787000 2.05033000
vt 3.80476000 -5.85872000
vt 3.80477000 4.72949000
vt 3.92257000 5.60539000
vt 3.92263000 -5.06964000
vt 4.34197000 -5.64720000
vt 4.34202000 4.91543000
vt 4.34749000 6.72022000
vt 4.34779000 -4.16225000
vt 4.48743000 -3.02318000
vt 4.48932000 2.07121000
vt 4.48945000 -7.7875300e-3
vt 4.59740000 5.60540000
vt 4.59742000 -5.06962000
vt 4.95758000 -5.20442000
vt 4.95767000 5.30332000
vt 5.09546000 6.72026000
vt 5.09572000 -4.16224000
vt 5.24655000 -4.86525000
vt 5.24657000 5.74435000
vt 5.25869000 -2.0973300e-6
vt 5.25935000 -3.02315000
vt 5.25953000 2.07898000
vt 5.81498000 6.76989000
vt 5.81521000 -4.01599000
vt 5.99041000 -4.43905000
vt 5.99045000 6.03315000
vt 6.00126000 -3.3339800e-4
vt 6.00191000 -2.97273000
vt 6.00211000 2.07866000
vt 6.63948000 6.87281000
vt 6.63968000 -3.71204000
vt 6.85218000 -7.4208700e-4
vt 6.85282000 -2.86817000
vt 6.85303000 2.07830000
vt 11.74560000 38.14460000
vt 20.75050000 34.41460000
vt 28.48310000 28.48110000
vt 34.41680000 20.74830000
vt 38.14680000 11.74320000
vt 39.37000000 4.3306200e-4
vt 39.37000000 2.07913000
vn 1.5147944e-2 0.97070529 0.23979530
vn 3.7029021e-2 0.80939384 0.58609766
vn 6.0853071e-2 0.97133251 0.22980441
vn 0.14937795 0.81241824 0.56361585
vn 5.3930569e-2 0.51785756 0.85376522
vn 0.21863737 0.52217133 0.82433901
vn 0.20456563 0.97171902 0.11796209
vn 0.22983735 0.97132850 6.0792651e-2
vn 0.50292511 0.81417373 0.29015078
vn 0.56365266 0.81240865 0.14929122
vn 0.12516122 0.98421571 0.12511639
vn 0.41000412 0.81477103 0.40993266
vn 0.11801757 0.97172128 0.20452286
vn 0.29022965 0.81417903 0.50287102
vn 0.42552893 0.52489454 0.73716406
vn 0.24228948 0.32789986 0.91311417
vn 0.47196245 0.33005277 0.81750634
vn 5.9626664e-2 0.32455364 0.94398601
vn 6.1854635e-2 0.19286207 0.97927434
vn 6.2787954e-2 8.9699176e-2 0.99398779
vn 6.3031261e-2 2.1125089e-2 0.99778795
vn 0.99778988 2.1149614e-2 6.2992436e-2
vn 0.99398928 8.9678802e-2 6.2793497e-2
vn 0.97927710 0.19284076 6.1877346e-2
vn 0.94399036 0.32453278 5.9671372e-2
vn 0.85377246 0.51783667 5.4016315e-2
vn 0.58611306 0.80937677 3.7158167e-2
vn 0.23981682 0.97069862 1.5234091e-2
vn 0.82437257 0.52215799 0.21854268
vn 0.73721825 0.52488776 0.42544340
vn 0.60150338 0.52580990 0.60142966
vn 0.66734048 0.33077669 0.66726567
vn 0.49026173 0.19639862 0.84915901
vn 0.69330733 0.19686475 0.69323100
vn 0.25159009 0.19500961 0.94798401
vn 0.25548000 9.0728196e-2 0.96254785
vn 0.25648717 2.1367409e-2 0.96631142
vn 0.49989866 2.1522215e-2 0.86581645
vn 0.49791840 9.1393878e-2 0.86239459
vn 0.70417399 9.1615976e-2 0.70409197
vn 0.70697554 2.1588617e-2 0.70690842
vn 0.86586128 2.1591585e-2 0.49981801
vn 0.96634206 2.1454638e-2 0.25636442
vn 0.96257848 9.0713173e-2 0.25536991
vn 0.94801451 0.19499395 0.25148726
vn 0.91314604 0.32788536 0.24218896
vn 0.81756117 0.33004532 0.47187267
vn 0.84921394 0.19639034 0.49016989
vn 0.86245229 9.1386002e-2 0.49781990
vn -3.1578579e-5 0.98352603 0.18076654
vn -1.00000000 3.7025532e-6 -1.4854631e-5
vn -3.1578579e-5 0.98352603 0.18076654
vn -4.0826017e-5 0.80899272 0.58781867
vn -4.0826017e-5 0.80899272 0.58781867
vn -1.00000000 3.7025532e-6 -1.4854631e-5
vn -1.00000000 3.7025532e-6 -1.4854631e-5
vn -7.4142787e-6 0.70708714 -0.70712642
vn -7.4142787e-6 0.70708714 -0.70712642
vn -3.3891054e-5 0.51733900 0.85578055
vn -1.00000000 3.7025532e-6 -1.4854631e-5
vn -3.3891054e-5 0.51733900 0.85578055
vn -1.00000000 3.7025532e-6 -1.4854631e-5
vn 1.1733445e-5 -1.1109333e-5 -1.00000000
vn -1.00000000 3.7025532e-6 -1.4854631e-5
vn 1.1733445e-5 -1.1109333e-5 -1.00000000
vn -1.1108786e-5 -1.00000000 1.1109260e-5
vn -1.00000000 3.7025532e-6 -1.4854631e-5
vn -9.4561150e-6 1.7969541e-5 1.00000000
vn -1.1108786e-5 -1.00000000 1.1109260e-5
vn -1.00000000 3.7025532e-6 -1.4854631e-5
vn -9.9959281e-6 2.1097083e-2 0.99977743
vn -9.9959281e-6 2.1097083e-2 0.99977743
vn -1.00000000 3.7025532e-6 -1.4854631e-5
vn -1.6123812e-5 8.9580095e-2 0.99597962
vn -1.6123812e-5 8.9580095e-2 0.99597962
vn -1.00000000 3.7025532e-6 -1.4854631e-5
vn -2.3336145e-5 0.19261236 0.98127492
vn -2.3336145e-5 0.19261236 0.98127492
vn -1.00000000 3.7025532e-6 -1.4854631e-5
vn -2.6676526e-5 0.32416151 0.94600175
vn -2.6676526e-5 0.32416151 0.94600175
vn -1.4625721e-5 0.89441030 -0.44724738
vn -1.4625721e-5 0.89441030 -0.44724738
vn -1.4625721e-5 0.89441030 -0.44724738
vn 1.1733445e-5 -1.1109333e-5 -1.00000000
vn 0.18078372 0.98352286 1.4162806e-4
vn 0.18078372 0.98352286 1.4162806e-4
vn 1.1733445e-5 -1.1109333e-5 -1.00000000
vn 0.58783038 0.80898415 3.1223603e-4
vn 0.58783038 0.80898415 3.1223603e-4
vn 1.1733445e-5 -1.1109333e-5 -1.00000000
vn 0.85578948 0.51732419 2.3872438e-4
vn 0.85578948 0.51732419 2.3872438e-4
vn 1.1733445e-5 -1.1109333e-5 -1.00000000
vn 0.94600799 0.32414325 1.6820692e-4
vn 0.94600799 0.32414325 1.6820692e-4
vn 1.1733445e-5 -1.1109333e-5 -1.00000000
vn 0.98127896 0.19259176 1.3003581e-4
vn 0.98127896 0.19259176 1.3003581e-4
vn 1.1733445e-5 -1.1109333e-5 -1.00000000
vn 0.99598152 8.9558961e-2 1.1096615e-4
vn 0.99598152 8.9558961e-2 1.1096615e-4
vn 1.1733445e-5 -1.1109333e-5 -1.00000000
vn 0.99977775 2.1081925e-2 7.5637597e-5
vn 0.99977775 2.1081925e-2 7.5637597e-5
vn 1.1733445e-5 -1.1109333e-5 -1.00000000
vn -1.1108786e-5 -1.00000000 1.1109260e-5
vn 1.00000000 8.3812686e-6 4.7358057e-5
vn 6.3044634e-2 1.8321620e-5 0.99801071
vn -1.1108786e-5 -1.00000000 1.1109260e-5
vn 6.3044634e-2 1.8321620e-5 0.99801071
vn -1.1108786e-5 -1.00000000 1.1109260e-5
vn 0.99801533 8.6309589e-5 6.2971357e-2
vn 0.99801533 8.6309589e-5 6.2971357e-2
vn -1.1108786e-5 -1.00000000 1.1109260e-5
vn 0.96656639 2.0321592e-4 0.25641641
vn 0.96656639 2.0321592e-4 0.25641641
vn -1.1108786e-5 -1.00000000 1.1109260e-5
vn 0.86605024 1.5552643e-4 0.49995696
vn 0.86605024 1.5552643e-4 0.49995696
vn -1.1108786e-5 -1.00000000 1.1109260e-5
vn 0.70713065 3.8860674e-5 0.70708291
vn 0.70713065 3.8860674e-5 0.70708291
vn -1.1108786e-5 -1.00000000 1.1109260e-5
vn 0.50001267 1.0118051e-5 0.86601809
vn 0.50001267 1.0118051e-5 0.86601809
vn -1.1108786e-5 -1.00000000 1.1109260e-5
vn 0.25654438 1.5674233e-5 0.96653245
vn 0.25654438 1.5674233e-5 0.96653245
g Mesh1
usemtl FrontColor
s 1
f 2/196/51 5/131/56 11/126/62 12/130/64 13/267/67 14/268/70 15/266/73 16/265/76 17/264/79 10/263/60 3/262/55
s 2
f 12/124/66 26/125/107 43/78/112 44/14/115 45/12/118 46/10/121 47/8/124 48/6/127 42/3/110 13/4/69
s 3
f 1/194/1 6/189/3 33/184/13 31/175/11 18/122/83 5/129/58 2/195/52
f 2/137/50 3/116/53 4/164/2 1/156/1
f 3/123/54 10/121/59 8/169/5 4/165/2
f 4/104/2 7/192/4 6/162/3 1/113/1
f 4/105/2 8/94/5 9/221/6 7/193/4
f 5/119/57 18/115/82 19/77/85 20/13/88 21/11/91 22/9/94 23/7/97 24/5/100 25/2/103 26/1/106 12/118/65 11/117/63
f 7/100/4 34/182/14 33/161/13 6/112/3
f 8/95/5 38/75/18 36/241/16 9/222/6
f 9/86/6 35/215/15 34/183/14 7/101/4
f 9/87/6 36/69/16 37/232/17 35/216/15
f 10/127/61 17/128/80 38/176/18 8/170/5
f 13/139/68 42/197/109 41/199/21 14/140/72
f 14/138/71 41/198/21 40/190/20 15/132/75
f 15/136/74 40/191/20 39/186/19 16/135/78
f 16/134/77 39/185/19 38/177/18 17/133/81
f 18/122/84 31/175/11 27/168/7 28/163/8 55/155/28 19/120/87
f 19/141/86 55/114/28 54/107/27 20/154/90
f 20/147/89 54/106/27 53/103/26 21/153/93
f 21/150/92 53/102/26 52/97/25 22/152/96
f 22/148/95 52/96/25 51/89/24 23/151/99
f 23/145/98 51/88/24 50/85/23 24/149/102
f 24/144/101 50/84/23 49/81/22 25/146/105
f 25/143/104 49/80/22 43/79/113 26/142/108
f 27/109/7 29/91/9 30/172/10 28/158/8
f 27/159/7 31/110/11 32/93/12 29/174/9
f 29/90/9 57/61/30 56/188/29 30/171/10
f 30/83/10 54/167/27 55/157/28 28/108/8
f 30/82/10 56/55/29 53/179/26 54/166/27
f 31/160/11 33/111/13 34/98/14 32/180/12
f 32/92/12 58/68/31 57/203/30 29/173/9
f 34/99/14 35/73/15 58/208/31 32/181/12
f 36/70/16 62/56/35 60/245/33 37/233/17
f 37/58/17 59/228/32 58/209/31 35/74/15
f 37/59/17 60/46/33 61/240/34 59/229/32
f 38/76/18 39/71/19 62/252/35 36/242/16
f 40/66/20 63/258/36 62/253/35 39/72/19
f 41/63/21 64/260/37 63/257/36 40/65/20
f 42/62/111 48/259/128 64/261/37 41/64/21
f 43/212/114 49/213/22 70/16/43 44/15/117
f 44/226/116 70/227/43 69/22/42 45/21/120
f 45/238/119 69/237/42 68/29/41 46/28/123
f 46/247/122 68/249/41 65/40/38 47/38/126
f 47/254/125 65/256/38 64/51/37 48/49/129
f 50/210/23 71/18/44 70/17/43 49/214/22
f 51/204/24 72/23/45 71/19/44 50/211/23
f 52/200/25 73/34/46 72/24/45 51/205/24
f 53/178/26 56/54/29 73/35/46 52/201/25
f 57/60/30 74/44/47 73/207/46 56/187/29
f 58/67/31 59/48/32 74/218/47 57/202/30
f 60/45/33 66/42/39 67/244/40 61/239/34
f 61/37/34 75/231/48 74/217/47 59/47/32
f 62/57/35 63/53/36 66/251/39 60/246/33
f 64/50/37 65/255/38 66/250/39 63/52/36
f 65/39/38 68/248/41 67/243/40 66/41/39
f 67/33/40 76/235/49 75/230/48 61/36/34
f 68/27/41 69/236/42 76/234/49 67/32/40
f 70/225/43 71/223/44 76/25/49 69/20/42
f 72/219/45 75/30/48 76/26/49 71/224/44
f 73/206/46 74/43/47 75/31/48 72/220/45
