# Exported from Wings 3D 1.5.4
mtllib CurveWedgeConcave1x1.mtl
o unnamed_object12_copy13
#40 vertices, 54 faces
v -0.50000000 -0.50000000 0.50000000
v 0.50000000 -0.50000000 0.50000000
v 0.50000000 -0.40000000 0.50000000
v -0.50000000 -0.40000000 0.50000000
v -0.50000000 0.50000000 -0.50000000
v 0.50000000 0.50000000 -0.50000000
v 0.50000000 -0.50000000 -0.50000000
v -0.50000000 -0.50000000 -0.50000000
v -0.50000000 0.50000000 -0.40000000
v 0.50000000 0.50000000 -0.40000000
v -0.50000000 -0.40000000 0.38282400
v -0.50000000 -0.39330300 0.28064500
v -0.50000000 0.38282400 -0.40000000
v -0.50000000 -0.37332600 0.18021400
v -0.50000000 0.28064500 -0.39330300
v -0.50000000 0.18021400 -0.37332600
v -0.50000000 8.3250000e-2 -0.34041100
v -0.50000000 -8.5880000e-3 -0.29512200
v -0.50000000 -9.3729000e-2 -0.23823200
v -0.50000000 -0.17071600 -0.17071600
v -0.50000000 -0.23823200 -9.3729000e-2
v -0.50000000 -0.29512100 -8.5880000e-3
v -0.50000000 -0.34041100 8.3250000e-2
v 0.50000000 -0.40000000 0.38282400
v 0.50000000 0.38282400 -0.40000000
v 0.50000000 0.28064500 -0.39330300
v 0.50000000 0.18021400 -0.37332600
v 0.50000000 -0.39330300 0.28064500
v 0.50000000 -0.37332600 0.18021400
v 0.50000000 -0.34041100 8.3250000e-2
v 0.50000000 -0.29512200 -8.5880000e-3
v 0.50000000 -0.23823200 -9.3729000e-2
v 0.50000000 -0.17071600 -0.17071600
v 0.50000000 -9.3729000e-2 -0.23823200
v 0.50000000 -8.5880000e-3 -0.29512100
v 0.50000000 8.3250000e-2 -0.34041100
v -0.50000000 -0.50000000 0.0000000e+0
v 0.50000000 -0.50000000 0.0000000e+0
v -0.50000000 0.0000000e+0 -0.50000000
v 0.50000000 0.0000000e+0 -0.50000000
vt 0.0000000e+0 3.6061780e-2
vt 0.0000000e+0 3.6061936e-2
vt 0.0000000e+0 7.2123756e-2
vt 0.0000000e+0 0.14424733
vt 0.0000000e+0 0.14424733
vt 0.0000000e+0 0.49641915
vt 0.0000000e+0 0.53248104
vt 0.0000000e+0 0.56854284
vt 0.0000000e+0 0.60460463
vt 0.0000000e+0 0.64066641
vt 0.0000000e+0 0.67588359
vt 0.0000000e+0 0.76807090
vt 0.0000000e+0 0.97622277
vt 2.7755576e-17 0.32033324
vt 5.5511151e-17 0.49641915
vt 6.0812466e-14 0.10818544
vt 6.0840222e-14 0.10818544
vt 7.0804473e-14 7.2123560e-2
vt 7.0832229e-14 1.5265567e-16
vt 2.7112652e-2 1.00000000
vt 3.3008713e-2 0.76807090
vt 0.11596455 0.88403545
vt 0.14307720 0.88403545
vt 0.14307720 0.76807090
vt 0.14307720 0.86025822
vt 0.14610165 0.84022316
vt 0.17608591 0.67588359
vt 0.17608591 0.86025822
vt 0.20607018 0.84022352
vt 0.20909463 0.76807090
vt 0.20909463 0.84022352
vt 0.21211908 0.76807090
vt 0.24143738 0.82427365
vt 0.27075569 0.76807090
vt 0.27378014 0.76807090
vt 0.27378014 0.84022316
vt 0.30309844 0.82427365
vt 0.31916311 0.76807090
vt 0.33724643 0.79738921
vt 0.33724643 0.81268192
vt 0.34883817 0.83153720
vt 0.35217183 0.14424733
vt 0.35217183 0.32033324
vt 0.35217183 0.49641915
vt 0.35217183 0.49641915
vt 0.35217183 0.53248095
vt 0.35217183 0.53248104
vt 0.35217183 0.56854283
vt 0.35217183 0.56854284
vt 0.35217183 0.60460462
vt 0.35217183 0.60460463
vt 0.35217183 0.63982182
vt 0.35217183 0.64066641
vt 0.35217183 0.67588359
vt 0.35217183 0.67588359
vt 0.35217183 0.71345927
vt 0.35217183 0.49641915
vt 0.35217183 0.10818544
vt 0.35217183 0.10818544
vt 0.35217183 -3.4694470e-18
vt 0.35217183 7.2123560e-2
vt 0.35217183 0.14424713
vt 0.35217183 7.2123560e-2
vt 0.35217183 0.0000000e+0
vt 0.35217183 0.17608591
vt 0.35217183 0.35217183
vt 0.35217183 0.35217183
vt 0.35217183 0.39343791
vt 0.35217183 0.43470400
vt 0.35217183 0.43470400
vt 0.35217183 0.47076589
vt 0.35217183 3.6061624e-2
vt 0.35217183 3.6061780e-2
vt 0.37220653 0.67065067
vt 0.39344918 0.76807090
vt 0.39344918 0.76807090
vt 0.41563812 0.75807028
vt 0.43806020 0.83153720
vt 0.44435914 0.67367512
vt 0.44435914 0.67367512
vt 0.44965193 0.79738921
vt 0.44965193 0.76807090
vt 0.44965193 0.80328809
vt 0.45100709 0.71345927
vt 0.45100709 0.75103494
vt 0.45100709 0.75103494
vt 0.48699165 0.74867645
vt 0.49091802 0.80328809
vt 0.49091802 0.80328809
vt 0.51651140 0.67065067
vt 0.52825774 0.75103494
vt 0.52825774 0.67588359
vt 0.52825774 0.71345927
vt 0.53218410 0.76807090
vt 0.53218410 0.80328809
vt 0.53218410 0.80933699
vt 0.53654646 0.64066641
vt 0.53654646 0.64066641
vt 0.55249632 0.67300916
vt 0.56362671 0.75807028
vt 0.56740129 0.80933699
vt 0.56740129 0.80933699
vt 0.60261847 0.76807090
vt 0.60261847 0.80933699
vt 0.60550839 0.71345927
vt 0.60869907 0.64369086
vt 0.62709300 0.71345927
vt 0.62709300 0.71345927
vt 0.66490182 0.67300916
vt 0.66835909 0.74867645
vt 0.68085133 0.64066641
vt 0.70434365 0.49641915
vt 0.70434365 0.53248095
vt 0.70434365 0.53248104
vt 0.70434365 0.56854283
vt 0.70434365 0.56854284
vt 0.70434365 0.60460462
vt 0.70434365 0.60460463
vt 0.70434365 0.63982182
vt 0.70434365 0.67588359
vt 0.70434365 0.75103494
vt 0.70434365 5.5511151e-17
vt 0.70434365 0.17608591
vt 0.70434365 0.35217183
vt 0.70434365 0.35217183
vt 0.70434365 0.39343791
vt 0.70434365 0.43470400
vt 0.70434365 0.43470400
vt 0.70434365 0.47076589
vt 0.70434365 0.35217183
vt 0.70434365 0.52825774
vt 0.70434365 0.62709300
vt 0.70434365 0.14307720
vt 0.70434365 0.17608591
vt 0.70434365 0.35217183
vt 0.70434365 0.74895467
vt 0.73849164 0.76054640
vt 0.74191933 0.45100709
vt 0.74191933 0.52825774
vt 0.74191933 0.62709300
vt 0.74191933 0.70434365
vt 0.74191933 0.35217183
vt 0.74191933 0.59172403
vt 0.74427783 0.66307757
vt 0.74895467 0.62709300
vt 0.76780995 0.70434365
vt 0.77713651 0.48699165
vt 0.77949501 0.45100709
vt 0.77949501 0.70434365
vt 0.77949501 0.45100709
vt 0.78653035 0.41563812
vt 0.78653035 0.52825774
vt 0.79653097 0.11596455
vt 0.79653097 0.14307720
vt 0.79653097 0.0000000e+0
vt 0.79653097 0.17608591
vt 0.79653097 0.31916311
vt 0.82030820 0.14307720
vt 0.88871828 0.28615440
vt 0.91249552 0.0000000e+0
vt 0.91249552 0.25904175
vn 0.0000000e+0 0.0000000e+0 1.00000000
vn 0.0000000e+0 -1.00000000 0.0000000e+0
vn -1.00000000 0.0000000e+0 0.0000000e+0
vn -1.00000000 0.0000000e+0 0.0000000e+0
vn -1.00000000 0.0000000e+0 0.0000000e+0
vn 0.0000000e+0 0.0000000e+0 1.00000000
vn 0.0000000e+0 -1.00000000 0.0000000e+0
vn 1.00000000 0.0000000e+0 0.0000000e+0
vn 1.00000000 0.0000000e+0 0.0000000e+0
vn 1.00000000 0.0000000e+0 0.0000000e+0
vn 0.0000000e+0 0.0000000e+0 1.00000000
vn 0.0000000e+0 1.00000000 0.0000000e+0
vn 1.00000000 0.0000000e+0 0.0000000e+0
vn 0.0000000e+0 0.0000000e+0 1.00000000
vn 0.0000000e+0 1.00000000 0.0000000e+0
vn -1.00000000 0.0000000e+0 0.0000000e+0
vn 0.0000000e+0 0.0000000e+0 -1.00000000
vn 0.0000000e+0 1.00000000 0.0000000e+0
vn -1.00000000 0.0000000e+0 0.0000000e+0
vn -1.00000000 0.0000000e+0 0.0000000e+0
vn -1.00000000 0.0000000e+0 0.0000000e+0
vn 0.0000000e+0 0.0000000e+0 -1.00000000
vn 0.0000000e+0 1.00000000 0.0000000e+0
vn 1.00000000 0.0000000e+0 0.0000000e+0
vn 1.00000000 0.0000000e+0 0.0000000e+0
vn 1.00000000 0.0000000e+0 0.0000000e+0
vn 0.0000000e+0 0.0000000e+0 -1.00000000
vn 0.0000000e+0 -1.00000000 0.0000000e+0
vn 1.00000000 -2.9165723e-16 0.0000000e+0
vn 1.00000000 -2.9165723e-16 0.0000000e+0
vn 1.00000000 -2.9165723e-16 0.0000000e+0
vn 1.00000000 -2.9165723e-16 0.0000000e+0
vn 0.0000000e+0 0.0000000e+0 -1.00000000
vn 0.0000000e+0 -1.00000000 0.0000000e+0
vn -1.00000000 0.0000000e+0 0.0000000e+0
vn -1.00000000 0.0000000e+0 0.0000000e+0
vn -1.00000000 0.0000000e+0 0.0000000e+0
vn -1.00000000 0.0000000e+0 0.0000000e+0
vn 0.0000000e+0 1.00000000 0.0000000e+0
vn 0.0000000e+0 0.0000000e+0 1.00000000
vn -1.00000000 0.0000000e+0 0.0000000e+0
vn 0.0000000e+0 1.00000000 0.0000000e+0
vn 0.0000000e+0 0.0000000e+0 1.00000000
vn 1.00000000 0.0000000e+0 0.0000000e+0
vn 0.0000000e+0 0.99946461 3.2718277e-2
vn 0.0000000e+0 0.99946461 3.2718277e-2
vn -1.00000000 0.0000000e+0 0.0000000e+0
vn -1.00000000 0.0000000e+0 0.0000000e+0
vn 0.0000000e+0 0.99144495 0.13052554
vn 0.0000000e+0 0.99144495 0.13052554
vn -1.00000000 0.0000000e+0 0.0000000e+0
vn -1.00000000 0.0000000e+0 0.0000000e+0
vn -1.00000000 0.0000000e+0 0.0000000e+0
vn 0.0000000e+0 3.2718277e-2 0.99946461
vn 0.0000000e+0 3.2718277e-2 0.99946461
vn -1.00000000 0.0000000e+0 0.0000000e+0
vn -1.00000000 0.0000000e+0 0.0000000e+0
vn 0.0000000e+0 0.96592560 0.25881990
vn 0.0000000e+0 0.96592560 0.25881990
vn -1.00000000 0.0000000e+0 0.0000000e+0
vn -1.00000000 0.0000000e+0 0.0000000e+0
vn 0.0000000e+0 0.13052554 0.99144495
vn 0.0000000e+0 0.13052554 0.99144495
vn -1.00000000 0.0000000e+0 0.0000000e+0
vn -1.00000000 0.0000000e+0 0.0000000e+0
vn -1.00000000 0.0000000e+0 0.0000000e+0
vn 0.0000000e+0 0.25881990 0.96592560
vn 0.0000000e+0 0.25881990 0.96592560
vn -1.00000000 0.0000000e+0 0.0000000e+0
vn -1.00000000 0.0000000e+0 0.0000000e+0
vn -2.2469926e-7 0.38268415 0.92387924
vn -2.2469926e-7 0.38268415 0.92387924
vn -1.00000000 0.0000000e+0 0.0000000e+0
vn -1.00000000 0.0000000e+0 0.0000000e+0
vn -4.3301259e-7 0.50000040 0.86602517
vn -4.3301259e-7 0.50000040 0.86602517
vn -1.00000000 0.0000000e+0 0.0000000e+0
vn -1.00000000 0.0000000e+0 0.0000000e+0
vn -1.00000000 0.0000000e+0 0.0000000e+0
vn -2.0831331e-7 0.60876238 0.79335261
vn -2.0831331e-7 0.60876238 0.79335261
vn -1.00000000 0.0000000e+0 0.0000000e+0
vn -1.00000000 0.0000000e+0 0.0000000e+0
vn -1.00000000 0.0000000e+0 0.0000000e+0
vn -1.00000000 0.0000000e+0 0.0000000e+0
vn 0.0000000e+0 0.70710678 0.70710678
vn 0.0000000e+0 0.70710678 0.70710678
vn -1.00000000 0.0000000e+0 0.0000000e+0
vn -1.00000000 0.0000000e+0 0.0000000e+0
vn 2.0831331e-7 0.79335261 0.60876238
vn 2.0831331e-7 0.79335261 0.60876238
vn -1.00000000 0.0000000e+0 0.0000000e+0
vn 4.3301259e-7 0.86602517 0.50000040
vn 4.3301259e-7 0.86602517 0.50000040
vn -1.00000000 0.0000000e+0 0.0000000e+0
vn -1.00000000 0.0000000e+0 0.0000000e+0
vn 2.2469926e-7 0.92387924 0.38268415
vn 2.2469926e-7 0.92387924 0.38268415
vn -1.00000000 0.0000000e+0 0.0000000e+0
vn -1.00000000 0.0000000e+0 0.0000000e+0
vn 0.0000000e+0 0.99946461 3.2718277e-2
vn 0.0000000e+0 0.99946461 3.2718277e-2
vn 1.00000000 0.0000000e+0 0.0000000e+0
vn 1.00000000 0.0000000e+0 0.0000000e+0
vn 0.0000000e+0 3.2718277e-2 0.99946461
vn 0.0000000e+0 3.2718277e-2 0.99946461
vn 1.00000000 0.0000000e+0 0.0000000e+0
vn 1.00000000 0.0000000e+0 0.0000000e+0
vn 1.00000000 0.0000000e+0 0.0000000e+0
vn 0.0000000e+0 0.13052554 0.99144495
vn 0.0000000e+0 0.13052554 0.99144495
vn 1.00000000 0.0000000e+0 0.0000000e+0
vn 1.00000000 0.0000000e+0 0.0000000e+0
vn 0.0000000e+0 0.25881990 0.96592560
vn 0.0000000e+0 0.25881990 0.96592560
vn 1.00000000 0.0000000e+0 0.0000000e+0
vn 1.00000000 0.0000000e+0 0.0000000e+0
vn 1.00000000 0.0000000e+0 0.0000000e+0
vn 0.0000000e+0 0.99144495 0.13052554
vn 0.0000000e+0 0.99144495 0.13052554
vn 1.00000000 0.0000000e+0 0.0000000e+0
vn 1.00000000 0.0000000e+0 0.0000000e+0
vn 0.0000000e+0 0.96592560 0.25881990
vn 0.0000000e+0 0.96592560 0.25881990
vn 1.00000000 0.0000000e+0 0.0000000e+0
vn 1.00000000 0.0000000e+0 0.0000000e+0
vn 2.2469926e-7 0.92387924 0.38268415
vn 2.2469926e-7 0.92387924 0.38268415
vn 1.00000000 0.0000000e+0 0.0000000e+0
vn 1.00000000 0.0000000e+0 0.0000000e+0
vn 4.3301259e-7 0.86602517 0.50000040
vn 4.3301259e-7 0.86602517 0.50000040
vn 1.00000000 0.0000000e+0 0.0000000e+0
vn 1.00000000 0.0000000e+0 0.0000000e+0
vn 1.00000000 -3.8887631e-16 0.0000000e+0
vn 2.0831331e-7 0.79335261 0.60876238
vn 2.0831331e-7 0.79335261 0.60876238
vn 1.00000000 -3.8887631e-16 0.0000000e+0
vn 1.00000000 -3.8887631e-16 0.0000000e+0
vn 1.00000000 -5.8331447e-16 0.0000000e+0
vn 1.00000000 -5.8331447e-16 0.0000000e+0
vn 0.0000000e+0 0.70710678 0.70710678
vn 0.0000000e+0 0.70710678 0.70710678
vn 1.00000000 0.0000000e+0 0.0000000e+0
vn -2.0831331e-7 0.60876238 0.79335261
vn -2.0831331e-7 0.60876238 0.79335261
vn 1.00000000 0.0000000e+0 0.0000000e+0
vn 1.00000000 0.0000000e+0 0.0000000e+0
vn -4.3301259e-7 0.50000040 0.86602517
vn -4.3301259e-7 0.50000040 0.86602517
vn 1.00000000 0.0000000e+0 0.0000000e+0
vn 1.00000000 0.0000000e+0 0.0000000e+0
vn -2.2469926e-7 0.38268415 0.92387924
vn -2.2469926e-7 0.38268415 0.92387924
vn 1.00000000 0.0000000e+0 0.0000000e+0
vn 1.00000000 0.0000000e+0 0.0000000e+0
vn 0.0000000e+0 -1.00000000 0.0000000e+0
vn -1.00000000 0.0000000e+0 0.0000000e+0
vn -1.00000000 0.0000000e+0 0.0000000e+0
vn -1.00000000 0.0000000e+0 0.0000000e+0
vn -1.00000000 0.0000000e+0 0.0000000e+0
vn -1.00000000 0.0000000e+0 0.0000000e+0
vn -1.00000000 0.0000000e+0 0.0000000e+0
vn 0.0000000e+0 -1.00000000 0.0000000e+0
vn 1.00000000 0.0000000e+0 0.0000000e+0
vn 1.00000000 0.0000000e+0 0.0000000e+0
vn 1.00000000 0.0000000e+0 0.0000000e+0
vn 1.00000000 0.0000000e+0 0.0000000e+0
vn 1.00000000 0.0000000e+0 0.0000000e+0
vn 1.00000000 0.0000000e+0 0.0000000e+0
vn 0.0000000e+0 0.0000000e+0 -1.00000000
vn -1.00000000 0.0000000e+0 0.0000000e+0
vn -1.00000000 0.0000000e+0 0.0000000e+0
vn -1.00000000 0.0000000e+0 0.0000000e+0
vn -1.00000000 0.0000000e+0 0.0000000e+0
vn -1.00000000 0.0000000e+0 0.0000000e+0
vn -1.00000000 0.0000000e+0 0.0000000e+0
vn 0.0000000e+0 0.0000000e+0 -1.00000000
vn 1.00000000 0.0000000e+0 0.0000000e+0
vn 1.00000000 0.0000000e+0 0.0000000e+0
vn 1.00000000 0.0000000e+0 0.0000000e+0
vn 1.00000000 0.0000000e+0 0.0000000e+0
vn 1.00000000 0.0000000e+0 0.0000000e+0
vn 1.00000000 0.0000000e+0 0.0000000e+0
g unnamed_object12_copy13_unnamed_object12_copy13_auv
usemtl unnamed_object12_copy13_auv
s 1
f 2/53/6 3/54/11 4/11/14 1/10/1
f 5/52/18 9/51/39 10/118/42 6/119/23
s 2
f 1/42/2 37/43/157 8/57/34 7/15/28 38/14/164 2/5/7
f 3/126/12 24/128/101 11/70/45 4/68/15
f 9/68/40 13/67/55 25/125/106 10/126/43
f 11/9/46 24/51/102 28/53/119 12/10/49
f 12/6/50 28/44/120 29/47/123 14/7/58
f 14/7/59 29/47/124 30/49/127 23/8/97
f 15/49/63 26/116/111 25/117/105 13/50/54
f 16/69/68 27/127/115 26/129/110 15/71/62
f 17/45/72 36/112/154 27/113/114 16/46/67
f 18/2/76 35/73/150 36/61/153 17/18/71
f 19/16/81 34/58/146 35/62/149 18/4/75
f 20/47/87 33/114/143 34/115/145 19/48/80
f 21/8/91 32/49/137 33/51/142 20/9/86
f 22/3/94 31/63/132 32/59/136 21/17/90
f 23/19/98 30/60/128 31/72/131 22/1/93
s 3
f 6/66/22 40/65/178 7/64/27 8/122/33 39/123/171 5/124/17
s 4
f 1/92/5 12/84/52 37/55/159
f 2/82/9 24/89/103 3/83/13
f 4/95/16 11/88/47 1/94/3
f 5/102/19 13/103/56 9/104/41
f 6/141/24 26/132/109 40/139/179
f 7/23/29 33/20/140 32/13/135
f 7/160/30 34/158/144 33/153/141
f 7/155/32 40/156/180 34/133/147
f 8/154/35 20/161/84 19/159/79
f 8/12/36 21/25/88 20/22/85
f 8/27/37 37/54/158 21/38/89
f 10/96/44 25/94/107 6/101/25
f 12/86/51 1/93/4 11/87/48
f 13/147/57 5/139/20 15/148/64
f 14/77/61 37/56/163 12/85/53
f 15/150/66 39/142/174 16/151/69
f 16/78/70 39/75/175 17/81/73
f 17/109/74 39/106/176 18/111/77
f 18/90/78 39/80/177 19/98/83
f 19/157/82 39/135/172 8/134/38
f 21/28/92 37/30/160 22/29/95
f 22/31/96 37/32/161 23/33/99
f 23/37/100 37/35/162 14/40/60
f 24/110/104 2/108/10 28/121/121
f 26/140/112 6/149/26 25/144/108
f 27/143/117 40/152/184 26/145/113
f 28/91/122 38/107/167 29/100/125
f 29/136/126 38/146/168 30/137/129
f 30/33/130 38/34/169 31/36/133
f 31/26/134 38/24/170 32/28/139
f 32/21/138 38/11/166 7/27/31
f 34/53/148 40/79/181 35/74/151
f 35/97/152 40/106/182 36/99/155
f 36/39/156 40/76/183 27/41/116
f 38/120/165 28/105/118 2/92/8
f 39/130/173 15/138/65 5/131/21
