# Exported from Wings 3D 1.5.4
mtllib Curve32L_1x2.mtl
o _submesh0_copy8
#12 vertices, 11 faces
v 0.50000352 1.00000592 -0.49999390
v -0.49999348 0.99999388 -0.49999390
v -0.50000552 -1.00000612 -0.50000510
v 0.49999148 -0.99999408 -0.50000510
v 0.49999248 -1.00000349 -0.44720610
v 0.46892248 -1.00001311 -0.20173810
v 0.37417848 -1.00001169 2.6990397e-2
v 0.22346348 -1.00001131 0.22340390
v 2.7056880e-2 -1.00001198 0.37411490
v -0.20166952 -1.00001367 0.46885590
v -0.44714052 -0.99999428 0.49999290
v -0.50000552 -0.99999492 0.49999290
vt 1.8347051e-2 0.65140498
vt 1.8347051e-2 0.98165289
vt 4.0437390e-2 0.43067539
vt 0.27520757 2.6930558e-2
vt 0.29030005 3.5706558e-2
vt 0.32592753 0.59668265
vt 0.34859397 0.65140498
vt 0.34859397 0.98165289
vt 0.35714171 8.2713731e-2
vt 0.37917240 0.97553719
vt 0.37917240 0.64528928
vt 0.41567079 0.13980170
vt 0.46693394 0.20349262
vt 0.51305313 0.27100477
vt 0.55645048 0.34029782
vt 0.59896286 0.41008007
vt 0.60802742 0.42497552
vt 0.64736087 0.32964230
vt 0.64736245 0.34707147
vt 0.65757236 0.24860116
vt 0.68880129 0.17306528
vt 0.70941965 0.64528928
vt 0.73854968 0.10820419
vt 0.80341662 5.8407301e-2
vt 0.87895425 2.7059238e-2
vt 0.96004465 1.6727015e-2
vt 0.97751080 1.6725752e-2
vt 0.97751089 0.34707147
vn 6.7460064e-11 5.6028840e-6 -1.00000000
vn 0.70454075 0.22115246 0.67432479
vn 0.70454075 0.22115246 0.67432479
vn 0.70454075 0.22115246 0.67432479
vn 0.70454075 0.22115246 0.67432479
vn 0.70454075 0.22115246 0.67432479
vn 0.70454075 0.22115246 0.67432479
vn 0.70454075 0.22115246 0.67432479
vn 0.70454075 0.22115246 0.67432479
vn 6.7460064e-11 5.6028840e-6 -1.00000000
vn -5.3846503e-6 0.44721088 0.89442855
vn -1.00000000 6.0201238e-6 6.7460124e-11
vn 6.7460064e-11 5.6028840e-6 -1.00000000
vn -1.00000000 6.0201238e-6 6.7460124e-11
vn -1.2040248e-5 -1.00000000 -1.1205768e-5
vn 6.7460064e-11 5.6028840e-6 -1.00000000
vn 1.00000000 -6.0200177e-6 -1.8939820e-5
vn -1.2040248e-5 -1.00000000 -1.1205768e-5
vn 0.99801838 1.6546932e-3 6.2901289e-2
vn -1.2040248e-5 -1.00000000 -1.1205768e-5
vn 0.99801838 1.6546932e-3 6.2901289e-2
vn -1.2040248e-5 -1.00000000 -1.1205768e-5
vn 0.96632384 2.3201249e-2 0.25628099
vn 0.96632384 2.3201249e-2 0.25628099
vn -1.2040248e-5 -1.00000000 -1.1205768e-5
vn 0.86362438 7.6945995e-2 0.49822911
vn 0.86362438 7.6945995e-2 0.49822911
vn -1.2040248e-5 -1.00000000 -1.1205768e-5
vn 0.69912768 0.15573473 0.69783034
vn 0.69912768 0.15573473 0.69783034
vn -1.2040248e-5 -1.00000000 -1.1205768e-5
vn 0.48544068 0.25119575 0.83740554
vn 0.48544068 0.25119575 0.83740554
vn -1.2040248e-5 -1.00000000 -1.1205768e-5
vn 0.24250549 0.35271996 0.90375866
vn 0.24250549 0.35271996 0.90375866
vn 5.7793469e-2 0.42443150 0.90361375
vn -1.2040248e-5 -1.00000000 -1.1205768e-5
vn 5.7793469e-2 0.42443150 0.90361375
vn -5.3846503e-6 0.44721088 0.89442855
vn -1.00000000 6.0201238e-6 6.7460124e-11
vn -1.2040248e-5 -1.00000000 -1.1205768e-5
g _submesh0_copy8__submesh0_copy8_auv
usemtl _submesh0_copy8_auv
s 1
f 3/11/14 12/22/41 2/10/12
s 2
f 1/2/1 4/1/16 3/7/13 2/8/10
s 3
f 4/19/18 5/18/20 6/20/22 7/21/25 8/23/28 9/24/31 10/25/34 11/26/38 12/27/42 3/28/15
s 4
f 1/6/3 5/16/19 4/17/17
f 1/6/4 6/15/23 5/16/21
f 1/6/5 7/14/26 6/15/24
f 1/6/6 8/13/29 7/14/27
f 1/6/7 9/12/32 8/13/30
f 1/6/8 10/9/35 9/12/33
f 1/6/9 11/5/39 10/9/36
f 2/3/11 12/4/40 11/5/37 1/6/2
