# Exported from Wings 3D 1.5.4
mtllib Curve31_1x6_refined.mtl
o Mesh1
#76 vertices, 61 faces
v -0.49715973 3.00000515 -0.44717638
v -0.49996573 3.00000500 -0.44717638
v -0.49997846 2.81320209 -0.20170296
v -0.48419346 2.81320296 -0.20170196
v -0.49996573 3.00000089 -0.50004138
v -0.48418573 3.00000575 -0.44882538
v -0.41096246 2.81320031 -0.21099196
v -0.47210372 2.24477542 2.7031706e-2
v -0.34272772 2.24477533 1.0620106e-2
v -0.49998372 2.24477387 2.7031306e-2
v -0.50000655 -2.05774711 -0.49997683
v -0.50002127 -2.99998711 -0.49996362
v -0.50002127 -2.99990935 0.50003338
v -0.50001834 -2.68311535 0.50002928
v -0.50001570 -1.21030977 0.46894119
v -0.50000300 0.16205387 0.37417940
v -0.49999209 1.34052314 0.22344913
v -0.49990073 3.00000089 -0.50004138
v -0.44710073 3.00000382 -0.50004138
v -0.20163146 2.81319546 -0.50002796
v 2.7089680e-2 2.24476216 -0.50002059
v 0.22348791 1.34050707 -0.50000887
v 0.37419200 0.16203445 -0.49999360
v 0.46892330 -1.21033129 -0.49997581
v 0.49997866 -2.68313757 -0.49996772
v 0.49997573 -2.99993157 -0.49996362
v -0.45375573 3.00000562 -0.47218738
v -0.44875173 3.00000496 -0.48427938
v -0.23918146 2.81319960 -0.34281196
v -0.21092146 2.81319586 -0.41105496
v -0.46171773 3.00000598 -0.46180438
v -0.28413346 2.81320166 -0.28421796
v -0.47209773 3.00000603 -0.45383538
v -0.34272646 2.81320190 -0.23925596
v -0.22217572 2.24477214 -3.9314294e-2
v -0.28413809 1.34052138 0.20092313
v -0.11866309 1.34051924 0.13238013
v -0.46172709 1.34052527 0.22345013
v -0.45376900 0.16205403 0.37418040
v -0.44877170 -1.21030692 0.46894219
v -0.44713134 -2.68311241 0.50002928
v -0.44715627 -2.99990641 0.50003438
v 0.49997573 -2.99992746 -0.44716462
v 0.46890673 -2.99997610 -0.20169662
v 0.37416273 -2.99996357 2.7032382e-2
v 0.22344773 -2.99995667 0.22344538
v 2.7041129e-2 -2.99995586 0.37415638
v -0.20168527 -2.99996120 0.46889738
v 0.49997366 -2.68313346 -0.44718972
v 0.46891730 -1.21032731 -0.44883381
v 0.37418600 0.16203563 -0.45384960
v 0.22348091 1.34051004 -0.46181887
v 2.7081480e-2 2.24476433 -0.47219759
v -0.20164046 2.81319668 -0.48427996
v -0.44711073 3.00000404 -0.49725338
v 1.0684680e-2 2.24476748 -0.34283059
v -3.9241220e-2 2.24476808 -0.22226559
v -0.11865872 2.24477172 -0.11874759
v 2.3429810e-2 1.34051866 2.3345126e-2
v -3.9234900e-2 0.16205230 0.26413740
v 0.13245900 0.16204979 0.13238740
v -0.23918300 0.16205364 0.34695940
v -0.21092870 -1.21030806 0.43877119
v -0.20166134 -2.68311320 0.46888728
v 2.7062762e-2 -2.68311986 0.37414128
v 1.0690396e-2 -1.21030888 0.34697219
v 0.20099330 -1.21031567 0.20094219
v 0.22346566 -2.68312067 0.22342628
v 0.37414466 -2.68312758 2.7016575e-2
v 0.46886766 -2.68312810 -0.20173572
v 0.43877430 -1.21032249 -0.21100681
v 0.34699000 0.16204061 -0.23927860
v 0.20097391 1.34051060 -0.28424187
v 0.13244291 1.34051366 -0.11874887
v 0.26418300 0.16204556 -3.9308900e-2
v 0.34699230 -1.21031636 1.0636487e-2
vt -39.37040000 4.3306800e-4
vt -39.37040000 2.07913000
vt -39.37010000 2.08173000
vt -39.37000000 4.3306300e-4
vt -38.14720000 11.74320000
vt -38.14420000 11.74590000
vt -34.41710000 20.74830000
vt -34.41420000 20.75090000
vt -28.48350000 28.48110000
vt -28.48070000 28.48350000
vt -20.75090000 34.41460000
vt -20.74790000 34.41710000
vt -11.74590000 38.14460000
vt -11.74290000 38.14720000
vt -6.85671000 -2.0073800e-2
vt -6.85555000 2.05897000
vt -6.85216000 -2.86839000
vt -6.63982000 6.87262000
vt -6.63947000 -3.71207000
vt -6.00175000 -2.97284000
vt -5.99981000 -2.8709500e-2
vt -5.99969000 2.05029000
vt -5.99037000 6.03312000
vt -5.99024000 -4.43907000
vt -5.81581000 6.76980000
vt -5.81548000 -4.01597000
vt -5.25864000 -3.02321000
vt -5.25759000 -7.7874200e-3
vt -5.25675000 2.07119000
vt -5.24692000 5.74438000
vt -5.24682000 -4.86520000
vt -5.09576000 6.72022000
vt -5.09546000 -4.16227000
vt -4.95759000 5.30331000
vt -4.95746000 -5.20443000
vt -4.59727000 5.60538000
vt -4.59721000 -5.06966000
vt -4.48804000 -2.0973200e-6
vt -4.48737000 -3.02314000
vt -4.48719000 2.07899000
vt -4.34842000 6.72028000
vt -4.34816000 -4.16222000
vt -4.34232000 4.91549000
vt -4.34222000 -5.64713000
vt -3.92301000 5.60542000
vt -3.92299000 -5.06960000
vt -3.80467000 4.72946000
vt -3.80462000 -5.85875000
vt -3.74565000 -3.3339700e-4
vt -3.74499000 -2.97269000
vt -3.74479000 2.07871000
vt -3.62907000 6.76994000
vt -3.62884000 -4.01594000
vt -3.61173000 4.53438000
vt -3.61156000 -5.95824000
vt -3.27401000 -4.86520000
vt -3.27400000 5.74439000
vt -3.24665000 -5.85870000
vt -3.24665000 4.72950000
vt -3.16347000 4.15667000
vt -3.16337000 -6.30884000
vt -2.88947000 -3.0901400e-4
vt -2.88881000 -2.86811000
vt -2.88861000 2.07837000
vt -2.79947000 6.87289000
vt -2.79927000 -3.71196000
vt -2.77177000 3.97625000
vt -2.77174000 -6.47597000
vt -2.70957000 -5.64714000
vt -2.70952000 4.91548000
vt -2.52556000 -4.43897000
vt -2.52552000 6.03322000
vt -2.36527000 -6.47592000
vt -2.36523000 3.97629000
vt -2.09016000 -5.20434000
vt -2.09007000 5.30339000
vt -2.08173000 39.37040000
vt -2.07876000 39.37040000
vt -2.07698000 -1.3494900e-3
vt -2.07614000 2.07733000
vt -2.07394000 -2.88111000
vt -2.04440000 3.77794000
vt -2.04402000 -6.83080000
vt -2.01008000 6.86009000
vt -2.00917000 -3.74932000
vt -1.97402000 -6.30884000
vt -1.97391000 4.15665000
vt -1.81286000 5.99773000
vt -1.81157000 -4.49148000
vt -1.79065000 3.51538000
vt -1.79044000 -7.00557000
vt -1.56892000 3.39046000
vt -1.56891000 -7.08888000
vt -1.52278000 -5.95815000
vt -1.52262000 4.53444000
vt -1.49939000 5.25561000
vt -1.49733000 -5.25911000
vt -1.33898000 -7.08884000
vt -1.33878000 3.39049000
vt -1.11765000 -7.00553000
vt -1.11725000 3.51536000
vt -1.09098000 4.48773000
vt -1.08780000 -6.00181000
vt -0.86234400 -6.83070000
vt -0.86177500 3.77798000
vt -0.61590500 3.74532000
vt -0.61157000 -6.85275000
vt -0.36197700 2.89845000
vt -0.31694700 2.82508000
vt -0.27758100 2.79032000
vt -0.23672200 2.79033000
vt -0.19738900 2.82508000
vt -0.15204300 2.89846000
vt -0.10821800 2.88931000
vt -2.9750300e-3 39.37040000
vt -7.6490300e-4 -6.85219000
vt -6.8206800e-4 6.18310000
vt -4.3307100e-4 4.3307100e-4
vt -4.3307100e-4 39.37040000
vt -2.9348200e-4 2.08173000
vt -1.6944300e-4 -6.00119000
vt -1.5563700e-4 2.9458300e-3
vt -9.5911000e-5 3.74572000
vt -5.8976300e-5 4.3306700e-4
vt -5.8976300e-5 39.37040000
vt -7.1306900e-9 6.18310000
vt 3.4777100e-5 4.48814000
vt 4.7736600e-5 -5.25858000
vt 5.8933300e-5 7.9676400e-5
vt 5.8975700e-5 4.3306600e-4
vt 5.8975700e-5 39.37040000
vt 1.0005900e-4 6.86029000
vt 1.5999600e-4 5.25597000
vt 1.9332700e-4 -4.49107000
vt 2.5696300e-4 5.99797000
vt 2.8481300e-4 -3.74906000
vt 2.9752700e-4 2.88946000
vt 5.3633800e-4 -2.88091000
vt 7.5495200e-4 9.7858000e-6
vt 7.5495200e-4 2.07871000
vt 1.5171700e-3 2.88900000
vt 1.7232300e-3 -1.3494900e-3
vt 1.7232300e-3 2.07735000
vt 3.3687500e-3 6.86011000
vt 3.8105200e-3 5.99774000
vt 3.9256200e-3 -2.88109000
vt 4.0658500e-3 3.74520000
vt 4.1337500e-3 5.25560000
vt 4.2768300e-3 -3.74929000
vt 4.3757100e-3 4.48768000
vt 5.0974000e-3 -4.49144000
vt 6.1896100e-3 -5.25905000
vt 7.5601500e-3 -6.00171000
vt 8.4011900e-3 -6.85264000
vt 0.10944100 2.08134000
vt 0.11076200 2.88948000
vt 0.15289000 2.89860000
vt 0.19827400 2.82522000
vt 0.23756000 2.79044000
vt 0.27845100 2.79043000
vt 0.31779100 2.82517000
vt 0.36285500 2.89854000
vt 0.62029000 2.01672000
vt 0.62070700 -6.85224000
vt 0.62137600 3.74570000
vt 0.86156100 3.77800000
vt 0.86194300 -6.83065000
vt 1.09644000 1.81968000
vt 1.09745000 -6.00122000
vt 1.09766000 4.48813000
vt 1.11732000 3.51542000
vt 1.11753000 -7.00548000
vt 1.33861000 3.39047000
vt 1.33862000 -7.08886000
vt 1.50531000 1.50617000
vt 1.50654000 -5.25861000
vt 1.50665000 5.25595000
vt 1.52224000 4.53444000
vt 1.52240000 -5.95814000
vt 1.56875000 -7.08890000
vt 1.56895000 3.39048000
vt 1.79013000 -7.00566000
vt 1.79053000 3.51533000
vt 1.81909000 1.09747000
vt 1.82044000 -4.49109000
vt 1.82050000 5.99795000
vt 1.97403000 4.15670000
vt 1.97414000 -6.30878000
vt 2.01639000 0.62147300
vt 2.01758000 6.86027000
vt 2.01777000 -3.74908000
vt 2.04386000 -6.83089000
vt 2.04443000 3.77792000
vt 2.08133000 0.11059700
vt 2.08136000 7.9676400e-5
vt 2.08136000 39.37040000
vt 2.08205000 9.7855600e-6
vt 2.08270000 -2.88093000
vt 2.08292000 2.07869000
vt 2.08956000 5.30337000
vt 2.08969000 -5.20434000
vt 2.36495000 3.97626000
vt 2.36499000 -6.47595000
vt 2.52490000 6.03319000
vt 2.52503000 -4.43899000
vt 2.70970000 4.91553000
vt 2.70979000 -5.64708000
vt 2.77180000 -6.47595000
vt 2.77184000 3.97628000
vt 2.79835000 6.87269000
vt 2.79871000 -3.71199000
vt 2.88449000 -1.9640300e-2
vt 2.88530000 2.05904000
vt 2.88868000 -2.86831000
vt 3.16315000 -6.30891000
vt 3.16325000 4.15661000
vt 3.24627000 4.72947000
vt 3.24632000 -5.85873000
vt 3.27422000 5.74442000
vt 3.27432000 -4.86515000
vt 3.61161000 -5.95825000
vt 3.61178000 4.53438000
vt 3.62888000 6.76984000
vt 3.62921000 -4.01591000
vt 3.74581000 -2.97279000
vt 3.74722000 -2.8710000e-2
vt 3.74787000 2.05033000
vt 3.80476000 -5.85872000
vt 3.80477000 4.72949000
vt 3.92257000 5.60539000
vt 3.92263000 -5.06964000
vt 4.34197000 -5.64720000
vt 4.34202000 4.91543000
vt 4.34749000 6.72022000
vt 4.34779000 -4.16225000
vt 4.48743000 -3.02318000
vt 4.48932000 2.07121000
vt 4.48945000 -7.7875300e-3
vt 4.59740000 5.60540000
vt 4.59742000 -5.06962000
vt 4.95758000 -5.20442000
vt 4.95767000 5.30332000
vt 5.09546000 6.72026000
vt 5.09572000 -4.16224000
vt 5.24655000 -4.86525000
vt 5.24657000 5.74435000
vt 5.25869000 -2.0973300e-6
vt 5.25935000 -3.02315000
vt 5.25953000 2.07898000
vt 5.81498000 6.76989000
vt 5.81521000 -4.01599000
vt 5.99041000 -4.43905000
vt 5.99045000 6.03315000
vt 6.00126000 -3.3339800e-4
vt 6.00191000 -2.97273000
vt 6.00211000 2.07866000
vt 6.63948000 6.87281000
vt 6.63968000 -3.71204000
vt 6.85218000 -7.4208700e-4
vt 6.85282000 -2.86817000
vt 6.85303000 2.07830000
vt 11.74560000 38.14460000
vt 20.75050000 34.41460000
vt 28.48310000 28.48110000
vt 34.41680000 20.74830000
vt 38.14680000 11.74320000
vt 39.37000000 4.3306200e-4
vt 39.37000000 2.07913000
vn 2.6642795e-2 0.90619091 0.42202868
vn 5.0100875e-2 0.60687969 0.79321305
vn 0.10733791 0.90793867 0.40512461
vn 0.20290673 0.61104558 0.76514845
vn 6.0241947e-2 0.29419462 0.95384508
vn 0.24488376 0.29729045 0.92284903
vn 0.36114388 0.90894721 0.20830284
vn 0.40516436 0.90793142 0.10724916
vn 0.68401268 0.61346942 0.39469219
vn 0.76518861 0.61103221 0.20279556
vn 0.22193161 0.94948415 0.22186981
vn 0.55800506 0.61429710 0.55791525
vn 0.20838308 0.90895153 0.36108670
vn 0.39479239 0.61347702 0.68394804
vn 0.47706569 0.29928066 0.82634098
vn 0.25270390 0.17185960 0.95215808
vn 0.49245291 0.17309734 0.85295219
vn 6.2116941e-2 0.16994899 0.98349318
vn 6.2732021e-2 9.8049369e-2 0.99320240
vn 6.2977176e-2 4.5067146e-2 0.99699690
vn 6.3041655e-2 1.0573020e-2 0.99795489
vn 0.99795730 1.0574899e-2 6.3003115e-2
vn 0.99699742 4.5046549e-2 6.2983769e-2
vn 0.99320290 9.8028215e-2 6.2757285e-2
vn 0.98349363 0.16992783 6.2167593e-2
vn 0.95384529 0.29417255 6.0346209e-2
vn 0.79321824 0.60685604 5.0304769e-2
vn 0.42204755 0.90617712 2.6812086e-2
vn 0.92288027 0.29727547 0.24478419
vn 0.82639535 0.29927302 0.47697630
vn 0.67458619 0.29994998 0.67450981
vn 0.69641826 0.17351268 0.69634400
vn 0.49750547 9.9902998e-2 0.86168886
vn 0.70358957 0.10014640 0.70351434
vn 0.25526909 9.9173954e-2 0.96177036
vn 0.25627597 4.5586772e-2 0.96552808
vn 0.25653140 1.0693067e-2 0.96647675
vn 0.49998554 1.0768683e-2 0.86596680
vn 0.49948513 4.5922627e-2 0.86510446
vn 0.70639780 4.6033301e-2 0.70631656
vn 0.70709899 1.0799893e-2 0.70703209
vn 0.86601249 1.0799308e-2 0.49990573
vn 0.96650875 1.0728802e-2 0.25640929
vn 0.96555784 4.5571354e-2 0.25616658
vn 0.96179909 9.9158163e-2 0.25516695
vn 0.95218765 0.17184428 0.25260289
vn 0.85300565 0.17308945 0.49236309
vn 0.86174235 9.9894750e-2 0.49741448
vn 0.86516132 4.5914611e-2 0.49938737
vn -6.9825093e-5 0.94758367 0.31950772
vn -1.00000000 7.4055871e-6 -1.4854673e-5
vn -6.9825093e-5 0.94758367 0.31950772
vn -6.6001551e-5 0.60632804 0.79521463
vn -6.6001551e-5 0.60632804 0.79521463
vn -1.00000000 7.4055871e-6 -1.4854673e-5
vn -1.00000000 7.4055871e-6 -1.4854673e-5
vn -3.0979669e-5 0.70707536 -0.70713820
vn -3.0979669e-5 0.70707536 -0.70713820
vn -4.1625107e-5 0.29383099 0.95585739
vn -1.00000000 7.4055871e-6 -1.4854673e-5
vn -4.1625107e-5 0.29383099 0.95585739
vn -1.00000000 7.4055871e-6 -1.4854673e-5
vn 1.1733445e-5 -1.1109362e-5 -1.00000000
vn -1.00000000 7.4055871e-6 -1.4854673e-5
vn 1.1733445e-5 -1.1109362e-5 -1.00000000
vn -1.1108786e-5 -1.00000000 1.1109260e-5
vn -1.00000000 7.4055871e-6 -1.4854673e-5
vn -9.4561531e-6 1.4539453e-5 1.00000000
vn -1.1108786e-5 -1.00000000 1.1109260e-5
vn -1.00000000 7.4055871e-6 -1.4854673e-5
vn -1.0114954e-5 1.0559371e-2 0.99994425
vn -1.0114954e-5 1.0559371e-2 0.99994425
vn -1.00000000 7.4055871e-6 -1.4854673e-5
vn -1.6690469e-5 4.5007416e-2 0.99898665
vn -1.6690469e-5 4.5007416e-2 0.99898665
vn -1.00000000 7.4055871e-6 -1.4854673e-5
vn -2.4770535e-5 9.7919440e-2 0.99519434
vn -2.4770535e-5 9.7919440e-2 0.99519434
vn -1.00000000 7.4055871e-6 -1.4854673e-5
vn -2.9725372e-5 0.16972741 0.98549105
vn -2.9725372e-5 0.16972741 0.98549105
vn -4.4434004e-5 0.89439837 -0.44727122
vn -4.4434004e-5 0.89439837 -0.44727122
vn -4.4434004e-5 0.89439837 -0.44727122
vn 1.1733445e-5 -1.1109362e-5 -1.00000000
vn 0.31952222 0.94757875 2.5388874e-4
vn 0.31952222 0.94757875 2.5388874e-4
vn 1.1733445e-5 -1.1109362e-5 -1.00000000
vn 0.79522258 0.60631744 4.6475498e-4
vn 0.79522258 0.60631744 4.6475498e-4
vn 1.1733445e-5 -1.1109362e-5 -1.00000000
vn 0.95586294 0.29381281 2.7382893e-4
vn 0.95586294 0.29381281 2.7382893e-4
vn 1.1733445e-5 -1.1109362e-5 -1.00000000
vn 0.98549453 0.16970711 1.7774644e-4
vn 0.98549453 0.16970711 1.7774644e-4
vn 1.1733445e-5 -1.1109362e-5 -1.00000000
vn 0.99519645 9.7897961e-2 1.3308094e-4
vn 0.99519645 9.7897961e-2 1.3308094e-4
vn 1.1733445e-5 -1.1109362e-5 -1.00000000
vn 0.99898762 4.4985722e-2 1.1182488e-4
vn 0.99898762 4.4985722e-2 1.1182488e-4
vn 1.1733445e-5 -1.1109362e-5 -1.00000000
vn 0.99994444 1.0540683e-2 7.5776878e-5
vn 0.99994444 1.0540683e-2 7.5776878e-5
vn 1.1733445e-5 -1.1109362e-5 -1.00000000
vn -1.1108786e-5 -1.00000000 1.1109260e-5
vn 1.00000000 -1.3634957e-6 4.7358165e-5
vn 6.3044634e-2 1.4354216e-5 0.99801071
vn -1.1108786e-5 -1.00000000 1.1109260e-5
vn 6.3044634e-2 1.4354216e-5 0.99801071
vn -1.1108786e-5 -1.00000000 1.1109260e-5
vn 0.99801533 3.7961208e-5 6.2971358e-2
vn 0.99801533 3.7961208e-5 6.2971358e-2
vn -1.1108786e-5 -1.00000000 1.1109260e-5
vn 0.96656640 9.7663573e-5 0.25641641
vn 0.96656640 9.7663573e-5 0.25641641
vn -1.1108786e-5 -1.00000000 1.1109260e-5
vn 0.86605024 7.5729910e-5 0.49995697
vn 0.86605024 7.5729910e-5 0.49995697
vn -1.1108786e-5 -1.00000000 1.1109260e-5
vn 0.70713065 1.9430240e-5 0.70708291
vn 0.70713065 1.9430240e-5 0.70708291
vn -1.1108786e-5 -1.00000000 1.1109260e-5
vn 0.50001267 7.0921688e-6 0.86601809
vn 0.50001267 7.0921688e-6 0.86601809
vn -1.1108786e-5 -1.00000000 1.1109260e-5
vn 0.25654438 1.1780898e-5 0.96653245
vn 0.25654438 1.1780898e-5 0.96653245
g Mesh1
usemtl FrontColor
s 1
f 2/196/51 5/131/56 11/126/62 12/130/64 13/267/67 14/268/70 15/266/73 16/265/76 17/264/79 10/263/60 3/262/55
s 2
f 12/124/66 26/125/107 43/78/112 44/14/115 45/12/118 46/10/121 47/8/124 48/6/127 42/3/110 13/4/69
s 3
f 1/194/1 6/189/3 33/184/13 31/175/11 18/122/83 5/129/58 2/195/52
f 2/137/50 3/116/53 4/164/2 1/156/1
f 3/123/54 10/121/59 8/169/5 4/165/2
f 4/104/2 7/192/4 6/162/3 1/113/1
f 4/105/2 8/94/5 9/221/6 7/193/4
f 5/119/57 18/115/82 19/77/85 20/13/88 21/11/91 22/9/94 23/7/97 24/5/100 25/2/103 26/1/106 12/118/65 11/117/63
f 7/100/4 34/182/14 33/161/13 6/112/3
f 8/95/5 38/75/18 36/241/16 9/222/6
f 9/86/6 35/215/15 34/183/14 7/101/4
f 9/87/6 36/69/16 37/232/17 35/216/15
f 10/127/61 17/128/80 38/176/18 8/170/5
f 13/139/68 42/197/109 41/199/21 14/140/72
f 14/138/71 41/198/21 40/190/20 15/132/75
f 15/136/74 40/191/20 39/186/19 16/135/78
f 16/134/77 39/185/19 38/177/18 17/133/81
f 18/122/84 31/175/11 27/168/7 28/163/8 55/155/28 19/120/87
f 19/141/86 55/114/28 54/107/27 20/154/90
f 20/147/89 54/106/27 53/103/26 21/153/93
f 21/150/92 53/102/26 52/97/25 22/152/96
f 22/148/95 52/96/25 51/89/24 23/151/99
f 23/145/98 51/88/24 50/85/23 24/149/102
f 24/144/101 50/84/23 49/81/22 25/146/105
f 25/143/104 49/80/22 43/79/113 26/142/108
f 27/109/7 29/91/9 30/172/10 28/158/8
f 27/159/7 31/110/11 32/93/12 29/174/9
f 29/90/9 57/61/30 56/188/29 30/171/10
f 30/83/10 54/167/27 55/157/28 28/108/8
f 30/82/10 56/55/29 53/179/26 54/166/27
f 31/160/11 33/111/13 34/98/14 32/180/12
f 32/92/12 58/68/31 57/203/30 29/173/9
f 34/99/14 35/73/15 58/208/31 32/181/12
f 36/70/16 62/56/35 60/245/33 37/233/17
f 37/58/17 59/228/32 58/209/31 35/74/15
f 37/59/17 60/46/33 61/240/34 59/229/32
f 38/76/18 39/71/19 62/252/35 36/242/16
f 40/66/20 63/258/36 62/253/35 39/72/19
f 41/63/21 64/260/37 63/257/36 40/65/20
f 42/62/111 48/259/128 64/261/37 41/64/21
f 43/212/114 49/213/22 70/16/43 44/15/117
f 44/226/116 70/227/43 69/22/42 45/21/120
f 45/238/119 69/237/42 68/29/41 46/28/123
f 46/247/122 68/249/41 65/40/38 47/38/126
f 47/254/125 65/256/38 64/51/37 48/49/129
f 50/210/23 71/18/44 70/17/43 49/214/22
f 51/204/24 72/23/45 71/19/44 50/211/23
f 52/200/25 73/34/46 72/24/45 51/205/24
f 53/178/26 56/54/29 73/35/46 52/201/25
f 57/60/30 74/44/47 73/207/46 56/187/29
f 58/67/31 59/48/32 74/218/47 57/202/30
f 60/45/33 66/42/39 67/244/40 61/239/34
f 61/37/34 75/231/48 74/217/47 59/47/32
f 62/57/35 63/53/36 66/251/39 60/246/33
f 64/50/37 65/255/38 66/250/39 63/52/36
f 65/39/38 68/248/41 67/243/40 66/41/39
f 67/33/40 76/235/49 75/230/48 61/36/34
f 68/27/41 69/236/42 76/234/49 67/32/40
f 70/225/43 71/223/44 76/25/49 69/20/42
f 72/219/45 75/30/48 76/26/49 71/224/44
f 73/206/46 74/43/47 75/31/48 72/220/45
