# Exported from Wings 3D 1.5.4
mtllib InnerCornerConvexCurve3.mtl
o _submesh0_extract3__submesh0_extract3_auv
#25 vertices, 16 faces
v 0.49999900 -0.49999900 -0.49999900
v -0.50000100 -0.49999900 -0.49999900
v -0.50000100 0.49999900 -0.49999900
v 0.49999900 0.49999900 -0.49999900
v 0.49999900 -0.49999900 0.49999800
v -0.50000100 -0.49999900 0.49999800
v -0.50000600 -0.44720000 0.49999900
v -0.50001200 -0.20173200 0.46892900
v -0.50001200 2.6996000e-2 0.37418500
v -0.50001200 0.22341000 0.22347000
v -0.50001200 0.37412100 2.7063000e-2
v -0.50001200 0.46886200 -0.20166300
v -0.50000100 0.49999900 -0.44713400
v 0.49999900 0.49999900 0.49999900
v 0.44713400 0.49999900 0.49999900
v 0.20166300 0.46886200 0.49998800
v -2.7063000e-2 0.37412100 0.49998800
v -0.22347000 0.22341000 0.49998800
v -0.37418500 2.6996000e-2 0.49998800
v -0.46892900 -0.20173200 0.49998800
v -0.46886200 0.49999900 -0.20166300
v -0.37412100 0.49999900 2.7063000e-2
v -0.22341000 0.49999900 0.22347000
v -2.6996000e-2 0.49999900 0.37418500
v 0.20173200 0.49999900 0.46892900
vt 0.0000000e+0 0.0000000e+0
vt 5.6666667e-3 0.14143333
vt 1.1333333e-2 0.28286667
vt 1.7000000e-2 0.42430000
vt 1.8100000e-2 0.54850000
vt 1.8100000e-2 0.84860000
vt 2.2666667e-2 0.56573333
vt 2.8333333e-2 0.70716667
vt 3.4000000e-2 0.84860000
vt 0.10770000 0.83920000
vt 0.17630000 0.81080000
vt 0.23520000 0.76550000
vt 0.28040000 0.70660000
vt 0.30880000 0.63800000
vt 0.31810000 0.54850000
vt 0.31810000 0.56440000
vt 0.34990000 0.54710000
vt 0.34990000 0.84710000
vt 0.64990000 0.54710000
vt 0.64990000 0.84710000
vt 0.68330000 1.6700000e-2
vt 0.68330000 0.31670000
vt 0.98330000 1.6700000e-2
vt 0.98330000 0.31670000
vn 0.0000000e+0 0.0000000e+0 -1.00000000
vn 0.0000000e+0 -1.00000000 0.0000000e+0
vn 1.00000000 0.0000000e+0 0.0000000e+0
vn 0.0000000e+0 0.0000000e+0 -1.00000000
vn -1.00000000 -1.1205770e-5 -1.2040249e-5
vn 0.0000000e+0 -1.00000000 0.0000000e+0
vn 0.0000000e+0 1.00000000 -6.9307297e-17
vn 0.0000000e+0 0.0000000e+0 -1.00000000
vn -1.00000000 -1.1205770e-5 -1.2040249e-5
vn 0.0000000e+0 1.00000000 -6.9307297e-17
vn 0.0000000e+0 0.0000000e+0 -1.00000000
vn 1.00000000 0.0000000e+0 0.0000000e+0
vn -1.0517941e-5 9.8602926e-6 1.00000000
vn 0.0000000e+0 -1.00000000 0.0000000e+0
vn 1.00000000 0.0000000e+0 0.0000000e+0
vn -1.0517941e-5 9.8602926e-6 1.00000000
vn -1.00000000 -1.1205770e-5 -1.2040249e-5
vn 0.0000000e+0 -1.00000000 0.0000000e+0
vn -1.0517941e-5 9.8602926e-6 1.00000000
vn -1.00000000 -1.1205770e-5 -1.2040249e-5
vn -0.70401839 8.9162455e-2 0.70456240
vn -1.00000000 -1.1205770e-5 -1.2040249e-5
vn -0.69457671 0.18601528 0.69495433
vn -0.69457671 0.18601528 0.69495433
vn -1.00000000 -1.1205770e-5 -1.2040249e-5
vn -0.65366100 0.38114218 0.65380268
vn -0.65366100 0.38114218 0.65380268
vn -1.00000000 -1.1205770e-5 -1.2040249e-5
vn -0.60913194 0.56077694 0.56079186
vn -0.60913194 0.56077694 0.56079186
vn -0.60913194 0.56077694 0.56079186
vn -1.00000000 -1.1205770e-5 -1.2040249e-5
vn -0.65369381 0.65377050 0.38114109
vn -0.65369381 0.65377050 0.38114109
vn -1.00000000 -1.1205770e-5 -1.2040249e-5
vn -0.69465332 0.69485746 0.18609103
vn -0.69465332 0.69485746 0.18609103
vn 0.0000000e+0 1.00000000 -6.9307297e-17
vn -1.00000000 -1.1205770e-5 -1.2040249e-5
vn -0.70413332 0.70442730 8.9322190e-2
vn 0.0000000e+0 1.00000000 -6.9307297e-17
vn -1.0517941e-5 9.8602926e-6 1.00000000
vn 1.00000000 0.0000000e+0 0.0000000e+0
vn 0.0000000e+0 1.00000000 -6.9307297e-17
vn -1.0517941e-5 9.8602926e-6 1.00000000
vn -8.9267606e-2 0.70349914 0.70506756
vn -1.0517941e-5 9.8602926e-6 1.00000000
vn -0.18606564 0.69425964 0.69525760
vn -0.18606564 0.69425964 0.69525760
vn -1.0517941e-5 9.8602926e-6 1.00000000
vn -0.38114163 0.65360805 0.65385593
vn -0.38114163 0.65360805 0.65385593
vn -1.0517941e-5 9.8602926e-6 1.00000000
vn -0.56074811 0.56075627 0.60919124
vn -0.56074811 0.56075627 0.60919124
vn -0.56074811 0.56075627 0.60919124
vn -1.0517941e-5 9.8602926e-6 1.00000000
vn -0.65366100 0.38114218 0.65380268
vn -0.65366100 0.38114218 0.65380268
vn -1.0517941e-5 9.8602926e-6 1.00000000
vn -0.69457671 0.18601528 0.69495433
vn -0.69457671 0.18601528 0.69495433
vn 0.0000000e+0 1.00000000 -6.9307297e-17
vn -0.69465332 0.69485746 0.18609103
vn -0.69465332 0.69485746 0.18609103
vn 0.0000000e+0 1.00000000 -6.9307297e-17
vn -0.65369381 0.65377050 0.38114109
vn -0.65369381 0.65377050 0.38114109
vn 0.0000000e+0 1.00000000 -6.9307297e-17
vn -0.56075434 0.60915340 0.56079115
vn -0.56075434 0.60915340 0.56079115
vn -0.56075434 0.60915340 0.56079115
vn 0.0000000e+0 1.00000000 -6.9307297e-17
vn -0.38114163 0.65360805 0.65385593
vn -0.38114163 0.65360805 0.65385593
vn 0.0000000e+0 1.00000000 -6.9307297e-17
vn -0.18606564 0.69425964 0.69525760
vn -0.18606564 0.69425964 0.69525760
g _submesh0_extract3__submesh0_extract3_auv
usemtl _submesh0_extract3_auv
s 1
f 2/5/5 6/15/17 7/16/20 8/14/22 9/13/25 10/12/28 11/11/32 12/10/35 13/9/39 3/6/9
f 4/22/12 14/1/43 5/17/15 1/21/3
s 2
f 2/23/4 3/24/8 4/22/11 1/21/1
f 5/17/13 14/1/42 15/1/45 16/1/47 17/1/50 18/1/53 19/1/57 20/1/60 7/16/19 6/19/16
s 3
f 1/18/2 5/17/14 6/19/18 2/20/6
f 3/6/7 13/9/38 21/8/63 22/7/66 23/4/69 24/3/73 25/2/76 15/1/44 14/1/41 4/22/10
s 4
f 7/16/21 20/1/61 8/14/23
f 8/14/24 20/1/62 19/1/58 9/13/26
f 9/13/27 19/1/59 18/1/55 10/12/30
f 10/12/29 23/4/71 22/7/68 11/11/34
f 11/11/33 22/7/67 21/8/65 12/10/37
f 12/10/36 21/8/64 13/9/40
f 15/1/46 25/2/77 16/1/48
f 16/1/49 25/2/78 24/3/75 17/1/52
f 17/1/51 24/3/74 23/4/70 18/1/54
f 23/4/72 10/12/31 18/1/56
