# Exported from Wings 3D 1.5.4
mtllib InnerCornerConvexCurve2.mtl
o _submesh0_extract3__submesh0_extract3_auv
#20 vertices, 13 faces
v 0.49999900 -0.49999900 -0.49999900
v -0.50000100 -0.49999900 -0.49999900
v -0.50000100 0.49999900 -0.49999900
v 0.49999900 0.49999900 -0.49999900
v 0.49999900 -0.49999900 0.49999800
v -0.50000100 -0.49999900 0.49999800
v -0.50000600 -0.44720000 0.49999900
v -0.50001200 -0.20173200 0.46892900
v -0.50001200 2.6996000e-2 0.37418500
v -0.50001200 0.22341000 0.22347000
v -0.50001200 0.37412100 2.7063000e-2
v -0.50001200 0.46886200 -0.20166300
v -0.50000100 0.49999900 -0.44713400
v 0.49999900 0.49999900 0.49999900
v 0.44713400 0.49999900 0.49999900
v 0.20166300 0.46886200 0.49998800
v -2.7063000e-2 0.37412100 0.49998800
v -0.22347000 0.22341000 0.49998800
v -0.37418500 2.6996000e-2 0.49998800
v -0.46892900 -0.20173200 0.49998800
vt 0.0000000e+0 0.0000000e+0
vt 1.8100000e-2 0.54850000
vt 1.8100000e-2 0.84860000
vt 3.4000000e-2 0.84860000
vt 0.10770000 0.83920000
vt 0.17630000 0.81080000
vt 0.23520000 0.76550000
vt 0.28040000 0.70660000
vt 0.30880000 0.63800000
vt 0.31810000 0.54850000
vt 0.31810000 0.56440000
vt 0.34990000 0.54710000
vt 0.34990000 0.84710000
vt 0.64990000 0.54710000
vt 0.64990000 0.84710000
vt 0.68330000 1.6700000e-2
vt 0.68330000 0.31670000
vt 0.98330000 1.6700000e-2
vt 0.98330000 0.31670000
vn 0.0000000e+0 0.0000000e+0 -1.00000000
vn 0.0000000e+0 -1.00000000 0.0000000e+0
vn 1.00000000 0.0000000e+0 0.0000000e+0
vn 0.0000000e+0 0.0000000e+0 -1.00000000
vn -1.00000000 -1.1205770e-5 -1.2040249e-5
vn 0.0000000e+0 -1.00000000 0.0000000e+0
vn 0.0000000e+0 1.00000000 0.0000000e+0
vn 0.0000000e+0 0.0000000e+0 -1.00000000
vn -1.00000000 -1.1205770e-5 -1.2040249e-5
vn 0.0000000e+0 1.00000000 0.0000000e+0
vn 0.0000000e+0 1.00000000 0.0000000e+0
vn 0.0000000e+0 0.0000000e+0 -1.00000000
vn 1.00000000 0.0000000e+0 0.0000000e+0
vn -1.0517941e-5 9.8602926e-6 1.00000000
vn 0.0000000e+0 -1.00000000 0.0000000e+0
vn 1.00000000 0.0000000e+0 0.0000000e+0
vn -1.0517941e-5 9.8602926e-6 1.00000000
vn -1.00000000 -1.1205770e-5 -1.2040249e-5
vn 0.0000000e+0 -1.00000000 0.0000000e+0
vn -1.0517941e-5 9.8602926e-6 1.00000000
vn -1.00000000 -1.1205770e-5 -1.2040249e-5
vn -0.70401839 8.9162455e-2 0.70456240
vn -1.00000000 -1.1205770e-5 -1.2040249e-5
vn -0.69457671 0.18601528 0.69495433
vn -0.69457671 0.18601528 0.69495433
vn -1.00000000 -1.1205770e-5 -1.2040249e-5
vn -0.65366100 0.38114218 0.65380268
vn -0.65366100 0.38114218 0.65380268
vn -1.00000000 -1.1205770e-5 -1.2040249e-5
vn -0.57512186 0.58172797 0.57517599
vn -0.57512186 0.58172797 0.57517599
vn -1.00000000 -1.1205770e-5 -1.2040249e-5
vn -0.44354639 0.77878862 0.44357061
vn -0.44354639 0.77878862 0.44357061
vn -1.00000000 -1.1205770e-5 -1.2040249e-5
vn -0.24491725 0.93809752 0.24492567
vn -0.24491725 0.93809752 0.24492567
vn -1.00000000 -1.1205770e-5 -1.2040249e-5
vn -6.2672655e-2 0.99606433 6.2673643e-2
vn -6.2672655e-2 0.99606433 6.2673643e-2
vn 0.0000000e+0 1.00000000 0.0000000e+0
vn -1.0517941e-5 9.8602926e-6 1.00000000
vn 1.00000000 0.0000000e+0 0.0000000e+0
vn 0.0000000e+0 1.00000000 0.0000000e+0
vn -1.0517941e-5 9.8602926e-6 1.00000000
vn -6.2672655e-2 0.99606433 6.2673643e-2
vn -6.2672655e-2 0.99606433 6.2673643e-2
vn -1.0517941e-5 9.8602926e-6 1.00000000
vn -0.24491725 0.93809752 0.24492567
vn -0.24491725 0.93809752 0.24492567
vn -1.0517941e-5 9.8602926e-6 1.00000000
vn -0.44354639 0.77878862 0.44357061
vn -0.44354639 0.77878862 0.44357061
vn -1.0517941e-5 9.8602926e-6 1.00000000
vn -0.57512186 0.58172797 0.57517599
vn -0.57512186 0.58172797 0.57517599
vn -1.0517941e-5 9.8602926e-6 1.00000000
vn -0.65366100 0.38114218 0.65380268
vn -0.65366100 0.38114218 0.65380268
vn -1.0517941e-5 9.8602926e-6 1.00000000
vn -0.69457671 0.18601528 0.69495433
vn -0.69457671 0.18601528 0.69495433
g _submesh0_extract3__submesh0_extract3_auv
usemtl _submesh0_extract3_auv
s 1
f 2/2/5 6/10/18 7/11/21 8/9/23 9/8/26 10/7/29 11/6/32 12/5/35 13/4/38 3/3/9
f 4/17/13 14/1/43 5/12/16 1/16/3
s 2
f 2/18/4 3/19/8 4/17/12 1/16/1
f 5/12/14 14/1/42 15/1/45 16/1/48 17/1/51 18/1/54 19/1/57 20/1/60 7/11/20 6/14/17
s 3
f 1/13/2 5/12/15 6/14/19 2/15/6
f 3/3/7 14/1/41 4/17/11
f 7/11/22 20/1/61 8/9/24
f 8/9/25 20/1/62 19/1/58 9/8/27
f 9/8/28 19/1/59 18/1/55 10/7/30
f 10/7/31 18/1/56 17/1/52 11/6/33
f 11/6/34 17/1/53 16/1/49 12/5/36
f 12/5/37 16/1/50 15/1/46 13/4/39
f 13/4/40 15/1/47 14/1/44 3/3/10
