# Exported from Wings 3D 1.5.4
mtllib polygon_wedge_insidecorner.mtl
o Cube1
#7 vertices, 7 faces
v -0.50000000 -0.50000000 -0.50000000
v -0.50000000 -0.50000000 0.50000000
v -0.50000000 0.50000000 -0.50000000
v 0.50000000 -0.50000000 -0.50000000
v 0.50000000 -0.50000000 0.50000000
v 0.50000000 0.50000000 -0.50000000
v 0.50000000 0.50000000 0.50000000
vt 3.9052429e-2 0.11045695
vt 3.9052429e-2 0.35898509
vt 3.9052429e-2 0.62900192
vt 3.9052429e-2 0.45326599
vt 5.8578644e-2 0.76568542
vt 5.8578644e-2 0.94142136
vt 0.21478836 0.35898509
vt 0.21478836 0.45326599
vt 0.23431458 0.76568542
vt 0.23431458 0.94142136
vt 0.35147186 0.47279221
vt 0.35147186 0.64852814
vt 0.40335017 3.9052429e-2
vt 0.52720779 0.47279221
vt 0.52720779 0.64852814
vt 0.65187831 3.9052429e-2
vt 0.65187831 0.21478836
vt 0.76568542 5.8578644e-2
vt 0.76568542 0.23431458
vt 0.78521164 0.33194565
vt 0.94142136 5.8578644e-2
vt 0.94142136 0.23431458
vt 0.96094757 0.33194565
vt 0.96094757 0.50768158
vn 0.0000000e+0 -1.00000000 0.0000000e+0
vn 0.0000000e+0 0.0000000e+0 -1.00000000
vn -1.00000000 0.0000000e+0 0.0000000e+0
vn 0.0000000e+0 -1.00000000 0.0000000e+0
vn 0.0000000e+0 0.0000000e+0 1.00000000
vn -1.00000000 0.0000000e+0 0.0000000e+0
vn -0.70710678 0.70710678 0.0000000e+0
vn 0.0000000e+0 0.70710678 0.70710678
vn 0.0000000e+0 0.0000000e+0 -1.00000000
vn -1.00000000 0.0000000e+0 0.0000000e+0
vn 0.0000000e+0 0.70710678 0.70710678
vn 0.0000000e+0 -1.00000000 0.0000000e+0
vn 0.0000000e+0 0.0000000e+0 -1.00000000
vn 1.00000000 0.0000000e+0 0.0000000e+0
vn 0.0000000e+0 -1.00000000 0.0000000e+0
vn 0.0000000e+0 0.0000000e+0 1.00000000
vn 1.00000000 0.0000000e+0 0.0000000e+0
vn 0.0000000e+0 0.0000000e+0 -1.00000000
vn 1.00000000 0.0000000e+0 0.0000000e+0
vn -0.70710678 0.70710678 0.0000000e+0
vn 0.0000000e+0 0.70710678 0.70710678
vn 0.0000000e+0 0.0000000e+0 1.00000000
vn 1.00000000 0.0000000e+0 0.0000000e+0
vn -0.70710678 0.70710678 0.0000000e+0
g Cube1
usemtl Cube1_auv
s 1
f 3/22/9 6/19/18 4/18/13 1/21/2
f 6/17/20 2/13/7 7/16/24
s 2
f 1/10/1 4/6/12 5/5/15 2/9/4
f 3/2/11 2/1/8 6/7/21
s 3
f 2/8/6 3/3/10 1/4/3
f 4/14/14 6/15/19 7/12/23 5/11/17
s 4
f 5/23/16 7/24/22 2/20/5
