# Exported from Wings 3D 1.5.4
mtllib polygon_minipipe_1.mtl
o Cylinder2
#16 vertices, 10 faces
v 0.25000000 1.1404957e-17 0.50000000
v 0.17677670 -0.17677670 0.50000000
v -1.9386385e-17 -0.25000000 0.50000000
v -0.17677670 -0.17677670 0.50000000
v -0.25000000 -1.9211213e-17 0.50000000
v -0.17677670 0.17677670 0.50000000
v -8.0618724e-17 0.25000000 0.50000000
v 0.17677670 0.17677670 0.50000000
v 0.25000000 -1.9211213e-17 -0.50000000
v 0.17677670 -0.17677670 -0.50000000
v -1.9386385e-17 -0.25000000 -0.50000000
v -0.17677670 -0.17677670 -0.50000000
v -0.25000000 -4.9827383e-17 -0.50000000
v -0.17677670 0.17677670 -0.50000000
v -8.0618724e-17 0.25000000 -0.50000000
v 0.17677670 0.17677670 -0.50000000
vt 0.0000000e+0 0.25000000
vt 0.0000000e+0 0.25000000
vt 0.0000000e+0 0.75000000
vt 7.3223305e-2 0.42677670
vt 7.3223305e-2 0.57322330
vt 7.3223305e-2 7.3223305e-2
vt 7.3223305e-2 7.3223305e-2
vt 7.3223305e-2 0.92677670
vt 0.25000000 0.50000000
vt 0.25000000 0.50000000
vt 0.25000000 0.0000000e+0
vt 0.25000000 2.7755576e-17
vt 0.25000000 1.00000000
vt 0.42677670 7.3223305e-2
vt 0.42677670 7.3223305e-2
vt 0.42677670 0.42677670
vt 0.42677670 0.42677670
vt 0.42677670 0.57322330
vt 0.42677670 0.92677670
vt 0.50000000 0.25000000
vt 0.50000000 0.25000000
vt 0.50000000 0.25000000
vt 0.50000000 0.75000000
vt 0.57322330 0.42677670
vt 0.57322330 7.3223305e-2
vt 0.75000000 0.0000000e+0
vt 0.75000000 0.50000000
vt 0.92677670 7.3223305e-2
vt 0.92677670 0.42677670
vt 1.00000000 0.25000000
vn -7.8504623e-17 2.2204460e-16 1.00000000
vn 1.00000000 6.0084837e-17 -2.4532695e-18
vn 1.00000000 6.0084837e-17 -2.4532695e-18
vn -7.8504623e-17 2.2204460e-16 1.00000000
vn 0.70710678 -0.70710678 2.6985964e-17
vn 0.70710678 -0.70710678 2.6985964e-17
vn -7.8504623e-17 2.2204460e-16 1.00000000
vn 9.0127256e-17 -1.00000000 3.9252311e-17
vn 9.0127256e-17 -1.00000000 3.9252311e-17
vn -7.8504623e-17 2.2204460e-16 1.00000000
vn -0.70710678 -0.70710678 2.6985964e-17
vn -0.70710678 -0.70710678 2.6985964e-17
vn -7.8504623e-17 2.2204460e-16 1.00000000
vn -1.00000000 -2.1029693e-16 2.5015339e-33
vn -1.00000000 -2.1029693e-16 2.5015339e-33
vn -7.8504623e-17 2.2204460e-16 1.00000000
vn -0.70710678 0.70710678 -2.6985964e-17
vn -0.70710678 0.70710678 -2.6985964e-17
vn -7.8504623e-17 2.2204460e-16 1.00000000
vn -1.5021209e-16 1.00000000 -4.1705581e-17
vn -1.5021209e-16 1.00000000 -4.1705581e-17
vn -7.8504623e-17 2.2204460e-16 1.00000000
vn 0.70710678 0.70710678 -3.1892503e-17
vn 0.70710678 0.70710678 -3.1892503e-17
vn 0.0000000e+0 -2.2204460e-16 -1.00000000
vn 1.00000000 6.0084837e-17 -2.4532695e-18
vn 1.00000000 6.0084837e-17 -2.4532695e-18
vn 0.0000000e+0 -2.2204460e-16 -1.00000000
vn 0.70710678 -0.70710678 2.6985964e-17
vn 0.70710678 -0.70710678 2.6985964e-17
vn 0.0000000e+0 -2.2204460e-16 -1.00000000
vn 9.0127256e-17 -1.00000000 3.9252311e-17
vn 9.0127256e-17 -1.00000000 3.9252311e-17
vn 0.0000000e+0 -2.2204460e-16 -1.00000000
vn -0.70710678 -0.70710678 2.6985964e-17
vn -0.70710678 -0.70710678 2.6985964e-17
vn 0.0000000e+0 -2.2204460e-16 -1.00000000
vn -1.00000000 -2.1029693e-16 2.5015339e-33
vn -1.00000000 -2.1029693e-16 2.5015339e-33
vn 0.0000000e+0 -2.2204460e-16 -1.00000000
vn -0.70710678 0.70710678 -2.6985964e-17
vn -0.70710678 0.70710678 -2.6985964e-17
vn 0.0000000e+0 -2.2204460e-16 -1.00000000
vn -1.5021209e-16 1.00000000 -4.1705581e-17
vn -1.5021209e-16 1.00000000 -4.1705581e-17
vn 0.0000000e+0 -2.2204460e-16 -1.00000000
vn 0.70710678 0.70710678 -3.1892503e-17
vn 0.70710678 0.70710678 -3.1892503e-17
g Cylinder2
usemtl Cylinder2_auv
s 1
f 1/30/1 8/29/22 7/27/19 6/24/16 5/20/13 4/25/10 3/26/7 2/28/4
f 10/5/28 11/9/31 12/18/34 13/23/37 14/19/40 15/13/43 16/8/46 9/3/25
s 2
f 1/22/2 9/21/26 16/16/47 8/17/23
f 2/15/6 10/14/30 9/21/27 1/22/3
f 3/12/9 11/11/33 10/14/29 2/15/5
f 4/7/12 12/6/36 11/11/32 3/12/8
f 5/2/15 13/1/39 12/6/35 4/7/11
f 6/4/18 14/4/42 13/1/38 5/2/14
f 7/9/21 15/10/45 14/4/41 6/4/17
f 8/17/24 16/16/48 15/10/44 7/9/20
