# Exported from Wings 3D 1.5.4
mtllib polygon_pipe_1.mtl
o Cylinder2
#16 vertices, 10 faces
v 0.50000000 2.3677276e-17 0.50000000
v 0.35355339 -0.35355339 0.50000000
v 3.0616170e-17 -0.50000000 0.50000000
v -0.35355339 -0.35355339 0.50000000
v -0.50000000 -3.7555064e-17 0.50000000
v -0.35355339 0.35355339 0.50000000
v -9.1848510e-17 0.50000000 0.50000000
v 0.35355339 0.35355339 0.50000000
v 0.50000000 -3.7555064e-17 -0.50000000
v 0.35355339 -0.35355339 -0.50000000
v 3.0616170e-17 -0.50000000 -0.50000000
v -0.35355339 -0.35355339 -0.50000000
v -0.50000000 -9.8787404e-17 -0.50000000
v -0.35355339 0.35355339 -0.50000000
v -9.1848510e-17 0.50000000 -0.50000000
v 0.35355339 0.35355339 -0.50000000
vt 0.0000000e+0 0.25000000
vt 0.0000000e+0 0.25000000
vt 0.0000000e+0 0.75000000
vt 7.3223305e-2 0.42677670
vt 7.3223305e-2 0.57322330
vt 7.3223305e-2 7.3223305e-2
vt 7.3223305e-2 7.3223305e-2
vt 7.3223305e-2 0.92677670
vt 0.25000000 0.50000000
vt 0.25000000 0.50000000
vt 0.25000000 0.0000000e+0
vt 0.25000000 2.7755576e-17
vt 0.25000000 1.00000000
vt 0.42677670 7.3223305e-2
vt 0.42677670 7.3223305e-2
vt 0.42677670 0.42677670
vt 0.42677670 0.42677670
vt 0.42677670 0.57322330
vt 0.42677670 0.92677670
vt 0.50000000 0.25000000
vt 0.50000000 0.25000000
vt 0.50000000 0.25000000
vt 0.50000000 0.75000000
vt 0.57322330 0.42677670
vt 0.57322330 7.3223305e-2
vt 0.75000000 0.0000000e+0
vt 0.75000000 0.50000000
vt 0.92677670 7.3223305e-2
vt 0.92677670 0.42677670
vt 1.00000000 0.25000000
vn 0.0000000e+0 2.7755576e-17 1.00000000
vn 1.00000000 6.0084837e-17 6.6707570e-33
vn 1.00000000 6.0084837e-17 6.6707570e-33
vn 0.0000000e+0 2.7755576e-17 1.00000000
vn 0.70710678 -0.70710678 5.8878467e-17
vn 0.70710678 -0.70710678 5.8878467e-17
vn 0.0000000e+0 2.7755576e-17 1.00000000
vn 1.2016967e-16 -1.00000000 7.8504623e-17
vn 1.2016967e-16 -1.00000000 7.8504623e-17
vn 0.0000000e+0 2.7755576e-17 1.00000000
vn -0.70710678 -0.70710678 5.3971928e-17
vn -0.70710678 -0.70710678 5.3971928e-17
vn 0.0000000e+0 2.7755576e-17 1.00000000
vn -1.00000000 -2.1029693e-16 5.0030677e-33
vn -1.00000000 -2.1029693e-16 5.0030677e-33
vn 0.0000000e+0 2.7755576e-17 1.00000000
vn -0.70710678 0.70710678 -5.3971928e-17
vn -0.70710678 0.70710678 -5.3971928e-17
vn 0.0000000e+0 2.7755576e-17 1.00000000
vn -1.8025451e-16 1.00000000 -8.3411162e-17
vn -1.8025451e-16 1.00000000 -8.3411162e-17
vn 0.0000000e+0 2.7755576e-17 1.00000000
vn 0.70710678 0.70710678 -6.3785006e-17
vn 0.70710678 0.70710678 -6.3785006e-17
vn 0.0000000e+0 -2.7755576e-17 -1.00000000
vn 1.00000000 6.0084837e-17 6.6707570e-33
vn 1.00000000 6.0084837e-17 6.6707570e-33
vn 0.0000000e+0 -2.7755576e-17 -1.00000000
vn 0.70710678 -0.70710678 5.8878467e-17
vn 0.70710678 -0.70710678 5.8878467e-17
vn 0.0000000e+0 -2.7755576e-17 -1.00000000
vn 1.2016967e-16 -1.00000000 7.8504623e-17
vn 1.2016967e-16 -1.00000000 7.8504623e-17
vn 0.0000000e+0 -2.7755576e-17 -1.00000000
vn -0.70710678 -0.70710678 5.3971928e-17
vn -0.70710678 -0.70710678 5.3971928e-17
vn 0.0000000e+0 -2.7755576e-17 -1.00000000
vn -1.00000000 -2.1029693e-16 5.0030677e-33
vn -1.00000000 -2.1029693e-16 5.0030677e-33
vn 0.0000000e+0 -2.7755576e-17 -1.00000000
vn -0.70710678 0.70710678 -5.3971928e-17
vn -0.70710678 0.70710678 -5.3971928e-17
vn 0.0000000e+0 -2.7755576e-17 -1.00000000
vn -1.8025451e-16 1.00000000 -8.3411162e-17
vn -1.8025451e-16 1.00000000 -8.3411162e-17
vn 0.0000000e+0 -2.7755576e-17 -1.00000000
vn 0.70710678 0.70710678 -6.3785006e-17
vn 0.70710678 0.70710678 -6.3785006e-17
g Cylinder2
usemtl Cylinder2_auv
s 1
f 1/30/1 8/29/22 7/27/19 6/24/16 5/20/13 4/25/10 3/26/7 2/28/4
f 10/5/28 11/9/31 12/18/34 13/23/37 14/19/40 15/13/43 16/8/46 9/3/25
s 2
f 1/22/2 9/21/26 16/16/47 8/17/23
f 2/15/6 10/14/30 9/21/27 1/22/3
f 3/12/9 11/11/33 10/14/29 2/15/5
f 4/7/12 12/6/36 11/11/32 3/12/8
f 5/2/15 13/1/39 12/6/35 4/7/11
f 6/4/18 14/4/42 13/1/38 5/2/14
f 7/9/21 15/10/45 14/4/41 6/4/17
f 8/17/24 16/16/48 15/10/44 7/9/20
