# Exported from Wings 3D 1.5.4
mtllib pyramidA.mtl
o _submesh0
#5 vertices, 5 faces
v 0.50000000 -2.50000000 -0.50000000
v 0.0000000e+0 2.50000000 0.0000000e+0
v 0.50000000 -2.50000000 0.50000000
v -0.50000000 -2.50000000 -0.50000000
v -0.50000000 -2.50000000 0.50000000
vt 9.9503719e-3 3.3333333e-2
vt 9.9503719e-2 0.93333333
vt 0.18905707 3.3333333e-2
vt 0.20895781 3.3333333e-2
vt 0.29851116 0.93333333
vt 0.38806450 3.3333333e-2
vt 0.40796525 3.3333333e-2
vt 0.49751860 0.93333333
vt 0.58707194 3.3333333e-2
vt 0.60697269 3.3333333e-2
vt 0.69652603 0.93333333
vt 0.78607938 3.3333333e-2
vt 0.80598012 9.9503719e-3
vt 0.80598012 0.18905707
vt 0.98508682 9.9503719e-3
vt 0.98508682 0.18905707
vn 0.0000000e+0 9.9503719e-2 -0.99503719
vn 0.99503719 9.9503719e-2 0.0000000e+0
vn 0.0000000e+0 -1.00000000 0.0000000e+0
vn 0.0000000e+0 9.9503719e-2 -0.99503719
vn 0.99503719 9.9503719e-2 0.0000000e+0
vn 0.0000000e+0 9.9503719e-2 0.99503719
vn -0.99503719 9.9503719e-2 0.0000000e+0
vn 0.99503719 9.9503719e-2 0.0000000e+0
vn 0.0000000e+0 9.9503719e-2 0.99503719
vn 0.0000000e+0 -1.00000000 0.0000000e+0
vn 0.0000000e+0 9.9503719e-2 -0.99503719
vn 0.0000000e+0 -1.00000000 0.0000000e+0
vn -0.99503719 9.9503719e-2 0.0000000e+0
vn 0.0000000e+0 9.9503719e-2 0.99503719
vn 0.0000000e+0 -1.00000000 0.0000000e+0
vn -0.99503719 9.9503719e-2 0.0000000e+0
g _submesh0__submesh0_auv
usemtl _submesh0_auv
s 1
f 1/7/1 4/9/11 2/8/4
f 2/11/6 5/10/14 3/12/9
s 2
f 2/2/5 3/1/8 1/3/2
f 4/4/13 5/6/16 2/5/7
s 3
f 3/13/10 5/15/15 4/16/12 1/14/3
