# Exported from Wings 3D 1.5.4
mtllib Wedge32L_1xA.mtl
o _submesh0
#5 vertices, 5 faces
v 0.50000000 -5.00000000 -0.50000000
v -0.50000000 5.00000000 -0.50000000
v 0.50000000 5.00000000 -0.50000000
v -0.50000000 -5.00000000 0.50000000
v -0.50000000 -5.00000000 -0.50000000
vt 0.20331679 0.96666667
vt 0.20331679 6.6666667e-2
vt 0.29287014 0.96666667
vt 0.30888502 3.3167906e-2
vt 0.43553258 3.3167906e-2
vt 0.43553258 0.92870138
vt 0.44519841 0.94528533
vt 0.44519841 4.9751860e-2
vt 0.53475176 0.94528533
vt 0.53475176 4.9751860e-2
vt 0.54304374 3.3167906e-2
vt 0.54304374 0.92870138
vt 0.63259708 3.3167906e-2
vt 0.64586425 9.6186928e-2
vt 0.73541759 6.6335813e-3
vt 0.73541759 9.6186928e-2
vn 0.70710678 0.0000000e+0 0.70710678
vn 0.0000000e+0 0.0000000e+0 -1.00000000
vn 0.0000000e+0 -1.00000000 0.0000000e+0
vn -1.00000000 0.0000000e+0 0.0000000e+0
vn 0.0000000e+0 0.0000000e+0 -1.00000000
vn 0.0000000e+0 9.9503719e-2 0.99503719
vn 0.70710678 0.0000000e+0 0.70710678
vn 0.0000000e+0 0.0000000e+0 -1.00000000
vn 0.0000000e+0 9.9503719e-2 0.99503719
vn -1.00000000 0.0000000e+0 0.0000000e+0
vn 0.70710678 0.0000000e+0 0.70710678
vn 0.0000000e+0 9.9503719e-2 0.99503719
vn 0.0000000e+0 -1.00000000 0.0000000e+0
vn -1.00000000 0.0000000e+0 0.0000000e+0
vn 0.0000000e+0 0.0000000e+0 -1.00000000
vn 0.0000000e+0 -1.00000000 0.0000000e+0
g _submesh0__submesh0_auv
usemtl _submesh0_auv
s 1
f 1/8/2 5/10/15 2/9/5 3/7/8
s 2
f 2/12/4 5/11/14 4/13/10
f 3/6/7 4/4/11 1/5/1
s 3
f 2/1/6 4/2/12 3/3/9
f 4/15/13 5/16/16 1/14/3
