# Exported from Wings 3D 1.5.4
mtllib Wedge43_1xA.mtl
o _submesh0
#7 vertices, 7 faces
v -0.50000000 5.00000000 0.50000000
v 0.50000000 5.00000000 -0.50000000
v -0.50000000 5.00000000 -0.50000000
v 0.50000000 -5.00000000 0.50000000
v -0.50000000 -5.00000000 0.50000000
v 0.50000000 -5.00000000 -0.50000000
v -0.50000000 -5.00000000 -0.50000000
vt 0.0000000e+0 0.99009901
vt 0.14037076 0.0000000e+0
vt 0.14037076 0.99503719
vt 0.14037076 1.00000000
vt 0.14037076 0.0000000e+0
vt 0.23987448 0.99503719
vt 0.23987448 0.99503719
vt 0.23987448 0.0000000e+0
vt 0.23987448 0.0000000e+0
vt 0.33937820 0.99503719
vt 0.33937820 0.0000000e+0
vt 0.43888192 0.0000000e+0
vt 0.43888192 0.99503719
vt 0.43888192 0.0000000e+0
vt 0.43888192 0.99503719
vt 0.53838564 0.0000000e+0
vt 0.53838564 9.9503719e-2
vt 0.53838564 9.9503719e-2
vt 0.53838564 0.19900744
vt 0.63788936 9.9503719e-2
vt 0.63788936 9.9503719e-2
vt 0.63788936 0.19900744
vn 0.0000000e+0 0.0000000e+0 1.00000000
vn 0.0000000e+0 1.00000000 0.0000000e+0
vn 0.70534562 7.0534562e-2 0.70534562
vn -1.00000000 0.0000000e+0 0.0000000e+0
vn 0.0000000e+0 1.00000000 0.0000000e+0
vn 1.00000000 0.0000000e+0 0.0000000e+0
vn 0.70534562 7.0534562e-2 0.70534562
vn 0.0000000e+0 0.0000000e+0 -1.00000000
vn 0.0000000e+0 1.00000000 0.0000000e+0
vn -1.00000000 0.0000000e+0 0.0000000e+0
vn 0.0000000e+0 0.0000000e+0 -1.00000000
vn 0.0000000e+0 0.0000000e+0 1.00000000
vn 1.00000000 0.0000000e+0 0.0000000e+0
vn 0.70534562 7.0534562e-2 0.70534562
vn 0.0000000e+0 -1.00000000 0.0000000e+0
vn 0.0000000e+0 0.0000000e+0 1.00000000
vn 0.0000000e+0 -1.00000000 0.0000000e+0
vn -1.00000000 0.0000000e+0 0.0000000e+0
vn 1.00000000 0.0000000e+0 0.0000000e+0
vn 0.0000000e+0 -1.00000000 0.0000000e+0
vn 0.0000000e+0 0.0000000e+0 -1.00000000
vn 0.0000000e+0 -1.00000000 0.0000000e+0
vn -1.00000000 0.0000000e+0 0.0000000e+0
vn 0.0000000e+0 0.0000000e+0 -1.00000000
g _submesh0__submesh0_auv
usemtl _submesh0_auv
s 1
f 3/3/10 7/5/23 5/8/18 1/6/4
f 4/11/13 6/12/19 2/13/6
s 2
f 1/15/1 5/14/16 4/16/12
f 2/7/8 6/9/21 7/11/24 3/10/11
s 3
f 1/1/3 4/2/14 2/4/7
f 5/21/17 7/22/22 6/19/20 4/17/15
s 4
f 2/20/5 3/18/9 1/16/2
