# Exported from Wings 3D 1.5.4
mtllib Wedge32L_1x6.mtl
o _submesh0
#5 vertices, 5 faces
v 0.50000000 -3.00000000 -0.50000000
v -0.50000000 3.00000000 -0.50000000
v 0.50000000 3.00000000 -0.50000000
v -0.50000000 -3.00000000 0.50000000
v -0.50000000 -3.00000000 -0.50000000
vt 5.4799662e-3 0.96666667
vt 5.4799662e-3 6.6666667e-2
vt 0.15343905 0.96666667
vt 0.16987895 3.2879797e-2
vt 0.16987895 0.92063433
vt 0.31783804 3.2879797e-2
vt 0.34429766 3.2879797e-2
vt 0.55354341 3.2879797e-2
vt 0.55354341 0.92063433
vt 0.56951320 0.93707423
vt 0.56951320 4.9319696e-2
vt 0.71747229 0.93707423
vt 0.71747229 4.9319696e-2
vt 0.73665217 0.15891902
vt 0.88461126 1.0959932e-2
vt 0.88461126 0.15891902
vn 0.70710678 0.0000000e+0 0.70710678
vn 0.0000000e+0 0.0000000e+0 -1.00000000
vn 0.0000000e+0 -1.00000000 0.0000000e+0
vn -1.00000000 0.0000000e+0 0.0000000e+0
vn 0.0000000e+0 0.0000000e+0 -1.00000000
vn 0.0000000e+0 0.16439899 0.98639392
vn 0.70710678 0.0000000e+0 0.70710678
vn 0.0000000e+0 0.0000000e+0 -1.00000000
vn 0.0000000e+0 0.16439899 0.98639392
vn -1.00000000 0.0000000e+0 0.0000000e+0
vn 0.70710678 0.0000000e+0 0.70710678
vn 0.0000000e+0 0.16439899 0.98639392
vn 0.0000000e+0 -1.00000000 0.0000000e+0
vn -1.00000000 0.0000000e+0 0.0000000e+0
vn 0.0000000e+0 0.0000000e+0 -1.00000000
vn 0.0000000e+0 -1.00000000 0.0000000e+0
g _submesh0__submesh0_auv
usemtl _submesh0_auv
s 1
f 1/11/2 5/13/15 2/12/5 3/10/8
s 2
f 2/5/4 5/4/14 4/6/10
f 3/9/7 4/7/11 1/8/1
s 3
f 2/1/6 4/2/12 3/3/9
f 4/15/13 5/16/16 1/14/3
