# Exported from Wings 3D 1.5.4
mtllib Wedge32R_1xA.mtl
o _submesh0
#5 vertices, 5 faces
v -0.50000000 -0.50000000 5.00000000
v 0.50000000 -0.50000000 -5.00000000
v 0.50000000 -0.50000000 5.00000000
v -0.50000000 0.50000000 -5.00000000
v -0.50000000 -0.50000000 -5.00000000
vt 0.0000000e+0 0.90950124
vt 0.0000000e+0 1.00000000
vt 1.1241008e-15 0.0000000e+0
vt 9.0498756e-2 0.90498756
vt 9.0498756e-2 0.0000000e+0
vt 0.21848332 0.0000000e+0
vt 0.21848332 0.90498756
vt 0.21848332 1.6653345e-16
vt 0.30898208 0.90498756
vt 0.30898208 0.0000000e+0
vt 0.30898208 0.0000000e+0
vt 0.39948084 0.0000000e+0
vt 0.39948084 9.0498756e-2
vt 0.90498756 0.90950124
vn 0.0000000e+0 0.99503719 9.9503719e-2
vn 0.0000000e+0 -1.00000000 0.0000000e+0
vn -1.00000000 0.0000000e+0 0.0000000e+0
vn 0.0000000e+0 0.0000000e+0 -1.00000000
vn 0.0000000e+0 -1.00000000 0.0000000e+0
vn 0.70710678 0.70710678 0.0000000e+0
vn 0.0000000e+0 0.99503719 9.9503719e-2
vn 0.0000000e+0 -1.00000000 0.0000000e+0
vn 0.70710678 0.70710678 0.0000000e+0
vn 0.0000000e+0 0.0000000e+0 -1.00000000
vn 0.0000000e+0 0.99503719 9.9503719e-2
vn 0.70710678 0.70710678 0.0000000e+0
vn -1.00000000 0.0000000e+0 0.0000000e+0
vn 0.0000000e+0 0.0000000e+0 -1.00000000
vn 0.0000000e+0 -1.00000000 0.0000000e+0
vn -1.00000000 0.0000000e+0 0.0000000e+0
g _submesh0__submesh0_auv
usemtl _submesh0_auv
s 1
f 1/11/2 5/9/15 2/7/5 3/8/8
s 2
f 2/10/4 5/12/14 4/13/10
f 3/5/7 4/1/11 1/3/1
s 3
f 2/7/6 4/4/12 3/6/9
f 4/2/13 5/1/16 1/14/3
