# Exported from Wings 3D 1.5.4
mtllib Wedge31_1x6.mtl
o _FrontColor
#4 vertices, 4 faces
v -0.50000000 -0.50000000 -3.00000000
v -0.50000000 -0.50000000 3.00000000
v -0.50000000 0.50000000 -3.00000000
v 0.50000000 -0.50000000 -3.00000000
vt 6.6105354e-3 0.82941138
vt 6.6105354e-3 5.6480439e-2
vt 2.8237570e-2 0.86351841
vt 2.8237570e-2 0.99058748
vt 0.18509499 0.80852135
vt 0.20772858 0.81888952
vt 0.33479765 5.6475139e-2
vt 0.33479765 0.81888952
vt 0.34891643 4.7062616e-3
vt 0.47598550 4.7062616e-3
vt 0.47598550 0.13177532
vt 0.79065195 0.86351841
vn 0.0000000e+0 -1.00000000 0.0000000e+0
vn -1.00000000 0.0000000e+0 0.0000000e+0
vn 0.0000000e+0 0.0000000e+0 -1.00000000
vn 0.0000000e+0 -1.00000000 0.0000000e+0
vn -1.00000000 0.0000000e+0 0.0000000e+0
vn 0.70224688 0.70224688 0.11704115
vn -1.00000000 0.0000000e+0 0.0000000e+0
vn 0.70224688 0.70224688 0.11704115
vn 0.0000000e+0 0.0000000e+0 -1.00000000
vn 0.0000000e+0 -1.00000000 0.0000000e+0
vn 0.70224688 0.70224688 0.11704115
vn 0.0000000e+0 0.0000000e+0 -1.00000000
g _FrontColor__FrontColor_auv
usemtl _FrontColor_auv
s 1
f 2/2/6 4/5/11 3/1/8
s 2
f 1/8/1 4/6/10 2/7/4
s 3
f 3/11/9 4/9/12 1/10/3
s 4
f 2/12/5 3/4/7 1/3/2
